/* XPM */
static char *result[] = {
/* columns rows colors chars-per-pixel */
"64 64 181 2 ",
"   c gray12",
".  c #202020",
"X  c gray13",
"o  c #222222",
"O  c gray14",
"+  c #252525",
"@  c gray15",
"#  c #272727",
"$  c #282828",
"%  c gray16",
"&  c #2A2A2A",
"*  c gray17",
"=  c #2C2C2C",
"-  c #2D2D2D",
";  c gray18",
":  c #2F2F2F",
">  c gray19",
",  c #313131",
"<  c #323232",
"1  c gray20",
"2  c #343434",
"3  c #353535",
"4  c gray21",
"5  c #373737",
"6  c gray22",
"7  c #393939",
"8  c #3A3A3A",
"9  c gray23",
"0  c #3C3C3C",
"q  c gray24",
"w  c #3E3E3E",
"e  c #3F3F3F",
"r  c gray25",
"t  c #414141",
"y  c gray26",
"u  c #434343",
"i  c #444444",
"p  c gray27",
"a  c #464646",
"s  c gray28",
"d  c #484848",
"f  c #494949",
"g  c gray29",
"h  c #4B4B4B",
"j  c #4C4C4C",
"k  c gray30",
"l  c #4E4E4E",
"z  c gray31",
"x  c #505050",
"c  c #515151",
"v  c gray32",
"b  c #535353",
"n  c gray33",
"m  c #555555",
"M  c #565656",
"N  c gray34",
"B  c #585858",
"V  c gray35",
"C  c #5A5A5A",
"Z  c #5B5B5B",
"A  c gray36",
"S  c #5D5D5D",
"D  c gray37",
"F  c #5F5F5F",
"G  c #606060",
"H  c gray38",
"J  c #626262",
"K  c gray39",
"L  c #646464",
"P  c #656565",
"I  c gray40",
"U  c #676767",
"Y  c #686868",
"T  c DimGray",
"R  c #6A6A6A",
"E  c gray42",
"W  c #6C6C6C",
"Q  c #6D6D6D",
"!  c gray43",
"~  c #6F6F6F",
"^  c gray44",
"/  c #717171",
"(  c #727272",
")  c gray45",
"_  c #747474",
"`  c gray46",
"'  c #767676",
"]  c #777777",
"[  c gray47",
"{  c #797979",
"}  c gray48",
"|  c #7B7B7B",
" . c #7C7C7C",
".. c gray49",
"X. c #7E7E7E",
"o. c gray50",
"O. c #808080",
"+. c #818181",
"@. c gray51",
"#. c #838383",
"$. c #848484",
"%. c gray52",
"&. c #868686",
"*. c gray53",
"=. c #888888",
"-. c #898989",
";. c gray54",
":. c #8B8B8B",
">. c gray55",
",. c #8D8D8D",
"<. c #8E8E8E",
"1. c gray56",
"2. c #909090",
"3. c gray57",
"4. c #929292",
"5. c #939393",
"6. c gray58",
"7. c #959595",
"8. c gray59",
"9. c #979797",
"0. c #989898",
"q. c gray60",
"w. c #9A9A9A",
"e. c #9B9B9B",
"r. c gray61",
"t. c #9D9D9D",
"y. c gray62",
"u. c #9F9F9F",
"i. c #A0A0A0",
"p. c gray63",
"a. c #A2A2A2",
"s. c gray64",
"d. c #A4A4A4",
"f. c #A5A5A5",
"g. c gray65",
"h. c #A7A7A7",
"j. c gray66",
"k. c #A9A9A9",
"l. c #AAAAAA",
"z. c gray67",
"x. c #ACACAC",
"c. c gray68",
"v. c #AEAEAE",
"b. c #AFAFAF",
"n. c gray69",
"m. c #B1B1B1",
"M. c #B2B2B2",
"N. c gray70",
"B. c #B4B4B4",
"V. c gray71",
"C. c #B6B6B6",
"Z. c #B7B7B7",
"A. c gray72",
"S. c #B9B9B9",
"D. c gray73",
"F. c #BBBBBB",
"G. c #BCBCBC",
"H. c gray74",
"J. c gray",
"K. c gray75",
"L. c #C0C0C0",
"P. c #C1C1C1",
"I. c gray76",
"U. c #C3C3C3",
"Y. c gray77",
"T. c #C5C5C5",
"R. c #C6C6C6",
"E. c gray78",
"W. c #C8C8C8",
"Q. c gray79",
"!. c #CACACA",
"~. c #CBCBCB",
"^. c gray80",
"/. c #CDCDCD",
"(. c #CECECE",
"). c gray81",
"_. c #D0D0D0",
"`. c gray82",
"'. c #D2D2D2",
"]. c LightGray",
"[. c gray83",
/* pixels */
"M M m U @.] ` 1.e.r.d.j.B.!.R.V.a.g.9.] ' X.@.@.,.5.1...G F S V h k j C ( ` _ W U N B A Q o.#.*.( J n a q 1 5 x D / ;.i.<.G n l ",
"C F 3.K.W.!.H.P.U.A.h.i.9.6.a.B.Z.F.I.I.K.Y.Q.c.k.n.A.~.I.*.n z y 0 P M.(.D.n.t.b.V.k.N.T.S.n.C.U.!.E.I.G.C.b.Z.I.E.!.L.W.v.G m ",
"V =.j.9.6.3.5.&.&.4.-. ./ ~ ` @.=.O.-.*.@.O...-.%.{ @.6.l.I.%.S L | p.x.9.<.>.p.a.a.b.b.e.,.#.} $.,.u.0.q.c.V.l.a.p.7.;.7.F.r.c ",
"J 5.9.-.[ X. .{ [ %.O.$.=.} ( | ,.O.{ #.' Y ~ / ) ) ` ! o.b.l.L ^ e.q.;.1.2.>.[ / Y / ( |  .[ U Q / ` _ .._  .@.O.o.o.| Q *.m.( ",
"C ' } $.+.} O...o.o.o.[ | $...) o.>.-.+.&.| ] { [ / { $.] 3.n.W %.d.#.` X.[ Q ..o.] / ! ^ Q +.=.+./ W ( ` { ` ! ~ { X.#.X.o.a.4.",
"Y W ' $.$./ ` ] | =.$.=.+.=.*._ ` X.=.*.;.@.o.| ` R L E ~ -.f.^ L ( } ^ { $.%.E ) O.[ } ' / ( { { X./ W E ^ ( ` R ! { ) { _ 2.7.",
"b ^ o.[ $.>.+.@. ...X.$.+...} ] ) ' %.-.#.&.&.#.-.=.' | ^ ' h. .v ! { / ' ] &.8. .! R L Q ' ] ] _ ) ^ [ ] Q E _ ^ Q @.o.| / @.X.",
"l J &.o.*.:.2.@.` _ ) }  ./ ' o.#.} { O.{ ) [ &.#.*.} X.#._ r.-.B ^ >.o...| } >.&.! ! _ ( ( ^ Q ^ | ' ) o.{ T R Q ! O.$.|  .=.` ",
"f h [ | ] } o.O.$. .O.} +.O...| [ { { =.{  .` [ ~ *.#.( .. .O. .k n O.=.O.@.| ] O.$.` ] ` { O.@.{ ] ) E _ $.*.@.| ~ ^ ] o.{  .Y ",
"g 5 v ' { ' %...o.O.) ] @.O._ +.@.X.} } X.=...| ^  .<.O.' / G V l 9 C >.>.+.O...+.$... .| ^ ) ( { [ O.) (  .o.O.X.I W Q R ! ` L ",
"H k 1 5 h i f c x d 9 5 e u p i k m Y K S K P W W D Q / R Y V h b d 2 c _ O. .`  ._ ^ U ` / W Q / R I R S A V z f w r s 8 8 k F ",
"N S v 2 & * 4 6 : - ; + & * @ @ % % + : > > 9 u w t e 7 7 f z h f n g - & 2 < , 1 > , 3 : ; , 2 7 r a s 7 : # + & 4 - < 7 i j b ",
"[ ( >.8.4.$.%.:.5.p.q.;.' | :.,. ._ ^ I c x j l g d x ) -.$.#.+. .Y F A N P U Z m P T D m l x x i y 0 , 9 w g x g g Z { ;.+...o.",
"T.E.U.!.).I.S.R.A.L.(.~.^._.W.(.`./.Q.J.2.Z N S A T c.I.S.R.R.P.Y.Y.W.`./.)._./.).`._.E.!.Q.~.F.L.H.N.N.v.4.K V V D y.I.D.G.J.F.",
"*.+.1.7.0.9.;.;.r.0.9.j.v.v.f.7.7.q.e.l.F.7.N M Z -.:.=.&.-.=.3.6.i.r.w.t.e.i.y.i.q.q.t.e.k.l.v.b.M.C.h.k.K.l.V D 2.1.X.@...( { ",
"! | } ] +.@... ...-.;.+.>.&.&.O.' ! ' $.u.V.{ m E O.X.` Q ] O.X.@.X.+.| | ....X.[ ( W ) ^ { %.[ ` O.:.=.O.0.A.o.R >.[ ) { | ~ E ",
"{ ) [ } $.#.[ ] ] R ) ) ` [ { =.<.%.o.O.6.c.i.N  .&.#.X.$.} | ! [ O.) ( / O.:.$.[ O.@.X.^ ! ~ X._ R | =.+.{ t.5.S X.O.T ) #.*.| ",
"/ ~ ! ` @.o.| _ ..+. .@.&.%.{ ] { ' / _ ' 8.c.Y F / ] ] ) ' ..} ~ ` } O.) _ &.#.` / Q O.]  . .' ~ '  .$.=.} *.2.M L $.` W ^ } _ ",
"` | ] Q ^ @.$.| { ` ) ` o.O.| X.%.:.>.X.[ =.0.` K O.O.+.O.| %.$.X...)  .+.! / ' ( $.O.O.` ) ] ) Q W { %.&.+.:.%.B S O.o.{ ..@...",
"( ` ( } | X.$.$.&.o...{ =.3.&.[ ] o.+.@.| =.5.Y L ' =.[ ( W [ -.=.#.+.o...] _ &.| | -.$.+.{  . . .R ! ..;.-.3.<.Z J ^ ..} )  .o.",
"=.&.@.+. .[ ] ' { } } ( ~ [ O.$. .}  . .) ) ] v N E { [ X.{ ! ~ } O.Q X.-.:.&.o.o.( ] ..} ` ..o.O. .Q ( { &.4.&.m L ;.>.=.#.{ <.",
",.3.4.=.%.X.} { @.%.{ ' ) X. .} +.$.o.[ / S Z a i l W [ _ { ..] ' O.} | -.=.:.o.O. .O. .' { X.X.X.X.' ~ ( ! ' ! b B @.<.%.2.-.$.",
"| _  .2.:.&.&.o._ ..X.@.$.:.,.;.*.| #.o.{ E b f w d K ` ( ` ..{ [ @.} R '  .@.#. .) | *.&.$.=.*.-.&.[ ( T B G S B t B ` [ { X.{ ",
"b I Z D F B C G K H L R J I T K L F G m f v c b l 5 q n Z B A n z m G M C P ) ^ Q ` ] ^ ' ' O.` J M p d 9 z A n M p 2 a b z l x ",
"= o * , 3 7 q 0 9 : = , 6 & * = ; d u r h A n c c g 4 $ < : * * , % O = , = : 9 7 4 f d e 0 > 1 > $ 3 9 f j k l n x w * # & & : ",
"k N l s x S P H N c d y p g d j u b L ( { +.#._ E F I K A L T W I G G x t z n c k 6 * 9 i r v V R >.9.u.9.;.} ( Q B h a g s u h ",
",.Y.Q.K.H.A.U.~./.E.I.H.F.Y.T.T.P.x.G.(.`.^.W.U.Q._.(.^.~.^._.[.]._.T.N.| h Z n z K 2.c.D.H.U.^.~.^.R.T.T.E.(.Q.S.c.#.S b m v m ",
"d.f.z.n.N.j.x.n.Z.N.n.u.i.i.z.c.d.a.t.y.s.p.g.r.9.j.z.d.5.e.w.y.f.d.j.C.I.%.z l D q.b.C.B.j.f.f.p.,.>.2.t.i.f.s.f.F.~.z.U n k +.",
"-.' E E | *.-.+.$.=.O.X.| ` _ *.&.O.#.}  .[ >.6.,.$.$.2.#._ ' ( [ ' [ %.d.V.' b &.1.*.( X.@.$.{ ' | ` Y ^ ' X.O.O.@.t.b.0.l L %.",
"' ( Q ~ ) ` ..{ | ;.,.+.X.o.!  .>.;.$.$.@... .1.-.=.*.:.3...] ' / ! / _ X.u.6.N _ { / ! _ ] } ` ) | ..] L L F W / / ..8.m.U x R ",
"T } [ +.O./ } $.%. .%.%. .o.$. .X.=.-.1.>.#.X.=.<.=.&.} @.*.{ ! / / E U ) ;.5.J D ! X.! ^ _ o.$.o.` ^ / _ ' Q Q Q R ) &.d.| c V ",
"R { ` o.+.[ ( ) O.| } | %.'  .| ( ] ..O.&.=.} | O.%.X.| { o.#.$.} } ) ~ [ @.| V S E ] [ / ~ o. .( ] ] ' ! } ` ..' Y ~ -.p. .C K ",
"@.' '  .O.o. .O.#.-.*.' ' ) ( O.] / _ } ` ] _ ( / } %.$. .+.+.:.*.:.<.@.&.8.#.R ] +.` ~ ` T ~ @.@.+...#.X.{ ) ' =.O...@.y. .N ) ",
"[ .._ E ` ( [ { |  .$.$.#.{ ( } -.( L K ~ ~ { ~ ( ^ E R ^ [  .*.>.@.O. .{ =.' B E -.1.X...' T _ @.+.@...O.o.@.{ ..+. .o.>.( s A ",
"U Q ] _ ' ) ^  .$.#.#.| | o.' / ] ..o.} } }  .$.-.=.;.X.] [ ] ! {  .] ' ` { H p g U o.$.O.%.| R / ] X.]  .` ' { [ ' ^ | | I f s ",
"c ! / Q E ' [ [ O.o. .{ ' [ } [  .O.,.&.X.@.&.o.o.&.-.=.| o.o._ ) } ` W M x x h 6 j T ( ^ } } T E )  .~ ^ ' / ! T _ L H D M b w ",
"5 m T / T D N x l m K T K G n B C l c M j g j A x c B G M M H ! ~ ! U S D S m M r < 3 y e 5 r p f z C U U Q T U P A h z A S C y ",
"w + @ % = O .   . X # > < 8 > & - $ O # # & $ , 3 @ @ = 2 6 , 2 6 s b v F D b z k a 0 , , 5 1 w ; * e e , & - 3 > 0 c n V N N n ",
"( S V N v J / } $.*. .Q U U I N l b m b m v c F }  .^ ! T S m f p i x E ` O.;.2.7.3.0.y.w.q.w.t.8.+.' ) ~ D t u g u i l N ~ &...",
"Q.R.T.E.W.Q.Y.K.Q.U.!.Q.R.!./.I.0.F N b v Z t.F.J.[.'.].[.T.S.C.C.L.Y.Y.U.J.H.Y.G.B.F.P.K.D.J.K.T.R.H.Y.^.Y.j.T k z j n <.J.I.L.",
"i.y.i.r.w.w.y.w.4.:.#.7.y.t.r.l.H.x.D x V r.i.q.7.8.e.q.r.f.k.x.h.i.a.0.5.r.q.;.4.7.&.#.,.$.X.&...X.3.&.5.a.V.R.;.m Z 5.h.6.4.a.",
"1.=.O.-.$.o. ...| { [  .[ ! /  .2.c.4.b X.0.,._ ( Q / _ ) { } O.[ { { [ ) { +.( R Q Q T ~ W H (  .( ^ ' ) _ | d.M.T T $. .( ( @.",
"%.<.1.>.2.&.#.@.#.o.../  .] ) ] $.f.C.P Q _ ' ! ` )  .#.O.../ X.{ '  .@.| W ) | ~ T J D Y R P R Q / U G T ^ ~ O.y.[ U ] *.<.*.:.",
"&.%.-.,.2.,.;.X.X.#.-.| | o.X.} X.&.g.T F U O.( ^ ] ' [ { ' ] } $.$.{ %.<.X./  .[ { R K ~ _ I Q ) U ! P R } | @.e.[ v R o.*.+.O.",
" .] ( / _ @.-.,.:.%.| @.=._ / ^ ~ { 1.T L ! o.#...&.#.*.&.#.@.+.| o.o.[ _ @.X.+.+.+.>.Y n Q ] T ..` {  .' ` ) ..,.Q h P  .X.&.#.",
" .O.} _ ] O.4.:.O.,.-.X.&.%.] %._ #.y.Y S R _ #.} #.+.=.*.&.=.*.:.O.( } X.&. .| +.} =.:.] K ! E }  . .@.+.' ) ` 3.' g Y o.X.{ | ",
"{ %.:.1.*.| X.:.*.@.O.o.}  .{ [  .! ;.n e T @.o._  .O.} *.+...) ( O.( R U (  .` +.' | / U P Q ! ' +.+. .o.#.%._ } ! y c } .. .] ",
"' X.;.*.;.{ | O.+.o.| } X.} ` (  .' K A a j Q +.| ^ O. .) | ] ~ ~ o.| { | } ( ~ { | ..| +. .=.X.{ ] ` ' ] [ ] Q L G h t H _ ` o.",
"#.( T ! _ %.+.X. .*...+.4. ...%.+.[ U g l w y P ..] ~ } ` / [ [ E ^ _ ` ^ Q Q H l a l Z k C U ~ ( ~ ) ' P V d r g z j 9 u E { o.",
"I S j t 7 s v M J P Q K ( @.T S B F K M c u % ; 7 6 5 < > ; > 6 ; ; a i 8 : = 0 7 w d z w r r g z k w 6 3 % 6 h M B n f 1 e V T ",
"* : @ O O X X o * : > 7 7 b i < t g C F n z u 7 > 4 6 q r u r q 9 i x L R ( / I D V m R J c 7 = > & @ @ 4 a k z b n B V f , $ # ",
"Q ) @. .! H K D M F I R K F Q { =.5.7.:.<.4.y.a.h.l.k.m.j.V.K.U.A.c.S.Y.W.E.W.V. .P G C H W %.=.;.0.4.3.m.x.q.R x j l N B v n P ",
"W.W.^._._./.W.L.K.W.Q./._.).).[.R.K.H.T.T.Z.n.S.l.f.b.v.m.k.e.l.h.t.0.2.i.p.g.F.C.Y B l ( G.L.D.I.I.W.S.n.I.Q.P.{ c v b l W v.Q.",
"3.9.r.t.p.i.s.c.z.t.;.$.,.1.;.7.t.8.-.*.3.1.O.o.%.] ] =.*.@.#.%.=./ Y U P ) &.9.v.O.x R 1.%.+.{ #.4.8.8.2.>.9.b.J.^ n v S p.l.4.",
"} o.+.;.=.-.#.+.*.O.) ....O.| ' O.*.=.[ { [ Q K [ ' / Q [ X... .O.O.^ [ _ U _ =.h.n.V &.6.*.! K Z ] ` } +.$.O...s.s.V n +.=.} @.",
"../ { { #.%.%.o.&.*.[ / ! } ..} o.*.&.o.&.O.@.~ ! [ ) _ ~ #.@./ ! ` { { .. .P @.6.j.( E #.*.;./ G R ] ' [ ] $.o.>.a.[ L +...{ ' ",
"&.&.o.@.` ( ( ` [ @. .&.%.o.[ ] O. .#.` _ { } [ W / (  .' ] .. .] X.[ +.| O.@./ 1.t.Y B %.1.&.4.$.O.@.o.X.@.@.&.=.4.X.A T R  .] ",
"} O._ ( ' R W W ( } | o.} | ..( ( ' X.X.| _ ` _ $.o./ W I ^ ..:.=.#.} [ *.} ` H E | Z v Y ,.y.r.3.=.+.| } O.%.>.6.e.#.N E ~ ' ] ",
"} *.o.( { [ ` ) ) ~ ! [ #./ / ` {  .+.>.;.;.&.+.| &.$._ D ^ | +.#.$.#.X...+.+.W ] ;.L i B E =.:.;.#.%.$. .$.&.$.1.d.1.l m ( { { ",
"X.@.-. ._ ] ) ( ..` ( ^ ' _ [ ^ ~ ( } @.@.*.@.| ] ..@.o.` S F X.X.>.*.*.{ ) +.:.>.>.U i v ` *.,.=.+.+.>.,. . .=.3.0.*.S G } =.*.",
"' O.+.] ` X.O.] } ` ^ ~ ..X.+.%.&.{ ( @.@.+.-.:.&.o.@.3.4.6. .#...| X... .} ;.#.$.6.T B z H +.,.*.-.+. .+.@.X._ #.9.[ f i A ) [ ",
"_ { @.$.o.o.%.#.#.%.{ ' | X...| @.+.' ^ $.X.+.=.+.O.*.{ +.=.*.) ..+.%.$.$.+.O.` | Q v x f g A o.-.,.2.;.-.$.X./ E ` L n 0 w D } ",
"k d M F m B D U H C x n u 8 t f l j c v F H F P / / ` R F H N J v l M N l l B x n K H J g : 2 i m A Z L ^ W T V k z l b g , 5 f ",
"q - O ; , = 8 = & : < < p g 2 * 6 q 1 : @ % o : - 6 6 8 : X @ $ < 6 $ X o - , t N S F B N s w 2 - = - 3 8 l n 0 r M j l c l : 5 "
};
