/* XPM */
static char *result[] = {
/* columns rows colors chars-per-pixel */
"32 63 6 1 ",
"  c #161421",
". c gray47",
"X c #6BA47E",
"o c #A7A7A7",
"O c #C2C2C5",
"+ c None",
/* pixels */
"++++++++++++++++++++++++++++++++",
"+++++                      +++++",
"++++ OOO                OOO ++++",
"+++  OOO                OOO  +++",
"+++  OOO                OOO  +++",
"++   OOO                OOO   ++",
"++  OOO                  OOO  ++",
"++  OOO                  OOO  ++",
"+   OOO                  OOO   +",
"+   OOO                  OOO   +",
"+   OOO                  OOO   +",
"+   OOO                  OOO   +",
"+   OOO     .......      OOO   +",
"+   OOO                  OOO   +",
"+   OOO                  OOO   +",
"+   OOO                  OOO   +",
"+   OOOXXXXXXXXXXXXXXXXXXOOO   +",
"+   OOOXXXXXXXXXXXXXXXXXXOOO   +",
"+   OOOXXXXXXXXXXXXXXXXXXOOO   +",
"+   OOOXXXXXXXXXXXXXXXXXXOOO   +",
"+   OOOXXXXXXXXXXXXXXXXXXOOO   +",
"+   OOOXXXXXXXXXXXXXXXXXXOOO   +",
"+   OOOXXXXXXXXXXXXXXXXXXOOO   +",
"+   OOOXXXXXXXXXXXXXXXXXXOOO   +",
"+   OOOXXXXXXXXXXXXXXXXXXOOO   +",
"+   OOOXXXXXXXXXXXXXXXXXXOOO   +",
"+   OOOXXXXXXXXXXXXXXXXXXOOO   +",
"+   OOOXXXXXXXXXXXXXXXXXXOOO   +",
"+   OOOXXXXXXXXXXXXXXXXXXOOO   +",
"+   OOOOXXXXXXXXXXXXXXXXOOOO   +",
"+    OOOO              OOOO    +",
"+    OOOO              OOOO    +",
"+     OOOOOOOOOOOOOOOOOOOO     +",
"+     OOOOOOOOOOOOOOOOOOOO     +",
"+      OOOOOOOOOOOOOOOOOO      +",
"++      OOOOOOOOOOOOOOOO      ++",
"++       OOOOOOOOOOOOOO       ++",
"++        OOOOOOOOOOOO        ++",
"++         OOOOOOOOOO         ++",
"++           OOOOOO           ++",
"++    oooo            oooo    ++",
"++    ooooo   oooo   ooooo    ++",
"++     oooo  oooooo  oooo     ++",
"++            oooo            ++",
"++                            ++",
"++    oooo            oooo    ++",
"++    ooooo   oooo   ooooo    ++",
"++     oooo  oooooo  oooo     ++",
"++            oooo            ++",
"++                            ++",
"++    oooo            oooo    ++",
"+++   ooooo   oooo   ooooo   +++",
"+++    oooo  oooooo  oooo    +++",
"+++           oooo           +++",
"+++                          +++",
"+++    oooo          oooo    +++",
"+++    ooooo  oooo  ooooo    +++",
"+++     oooo oooooo oooo     +++",
"+++           oooo           +++",
"++++                        ++++",
"+++++                      +++++",
"++++++                    ++++++",
"++++++++++++++++++++++++++++++++"
};
