/* XPM */
static char *tig_coin[] = {
/* columns rows colors chars-per-pixel */
"80 120 4 1",
"  c None",
". c #DDCC99",
"$ c #E7C337",
"- c #666666",
/* pixels */
"                                                                                ",
"                                                                                ",
"                                                                                ",
"                                                                                ",
"                                                                                ",
"                                                                                ",
"                                                                                ",
"                                                                                ",
"                                                                                ",
"                                    ........                                    ",
"                                 .....$$$$.....                                 ",
"                             .....$$$$$$$$$$$$.....                             ",
"                           ...$$$$$$$$$$$$$$$$$$$$...                           ",
"                         ...$$$$$$$$$$$$$$$$$$$$$$$$...                         ",
"                        ...$$$$$$$$$$$$$$$$$$$$$$$$$$...                        ",
"                       ..$$$$$$$$$$$$$$$$$$$$$$$$$$$$$$..                       ",
"                      ..$$$$$$$$$$$$$$$$$$$$$$$$$$$$$$$$..                      ",
"                     ..$$$$$$$$$$$$$$$$$$$$$$$$$$$$$$$$$$..                     ",
"                     ..$$$$$$$$$$$$$$$$$$$$$$$$$$$$$$$$$$..                     ",
"                     ..$$$$$$$$$$$$$$$$$$$$$$$$$$$$$$$$$$..                     ",
"                    ..$$$$$$$$-----$$$$-$$$$-----$$$$$$$$$..                    ",
"                    ..$$$$$$$$$$-$$$$$$$$$$$-$$$$$$$$$$$$$..                    ",
"                    ..$$$$$$$$$$-$$$$$$-$$$$-$$--$$$$$$$$$..                    ",
"                    ..$$$$$$$$$$-$$$$$$-$$$$-$$$-$$$$$$$$$..                    ",
"                    ..$$$$$$$$$$-$$$$$$-$$$$-----$$$$$$$$$..                    ",
"                     ..$$$$$$$$$$$$$$$$$$$$$$$$$$$$$$$$$$..                     ",
"                     ..$$$$$$$$$$$$$$$$$$$$$$$$$$$$$$$$$$..                     ",
"                     ..$$$$$$$$$$$$$$$$$$$$$$$$$$$$$$$$$$..                     ",
"                      ..$$$$$$$$$$$$$$$$$$$$$$$$$$$$$$$$..                      ",
"                       ..$$$$$$$$$$$$$$$$$$$$$$$$$$$$$$..                       ",
"                        ...$$$$$$$$$$$$$$$$$$$$$$$$$$...                        ",
"                         ...$$$$$$$$$$$$$$$$$$$$$$$$...                         ",
"                           ...$$$$$$$$$$$$$$$$$$$$...                           ",
"                             .....$$$$$$$$$$$$.....                             ",
"                                 .....$$$$.....                                 ",
"                                    ........                                    ",
"                                                                                ",
"                                                                                ",
"                                                                                ",
"                                                                                ",/*frame*/
"                                                                                ",
"                                                                                ",
"                                                                                ",
"                                                                                ",
"                                                                                ",
"                                                                                ",
"                                                                                ",
"                                                                                ",
"                                                                                ",
"                                     ......                                     ",
"                                 .....$$$$.....                                 ",
"                              .....$$$$$$$$$$.....                              ",
"                            ...$$$$$$$$$$$$$$$$$$...                            ",
"                          ...$$$$$$$$$$$$$$$$$$$$$$...                          ",
"                         ...$$$$$$$$$$$$$$$$$$$$$$$$...                         ",
"                        ...$$$$$$$$$$$$$$$$$$$$$$$$$$...                        ",
"                       ...$$$$$$$$$$$$$$$$$$$$$$$$$$$$...                       ",
"                      ...$$$$$$$$$$$$$$$$$$$$$$$$$$$$$$...                      ",
"                      ...$$$$$$$$$$$$$$$$$$$$$$$$$$$$$$...                      ",
"                      ...$$$$$$$$$$$$$$$$$$$$$$$$$$$$$$...                      ",
"                     ...$$$$$$$-----$$$-$$$-----$$$$$$$$...                     ",
"                     ...$$$$$$$$$-$$$$$$$$$-$$$$$$$$$$$$...                     ",
"                     ...$$$$$$$$$-$$$$$-$$$-$$--$$$$$$$$...                     ",
"                     ...$$$$$$$$$-$$$$$-$$$-$$$-$$$$$$$$...                     ",
"                     ...$$$$$$$$$-$$$$$-$$$-----$$$$$$$$...                     ",
"                      ...$$$$$$$$$$$$$$$$$$$$$$$$$$$$$$...                      ",
"                      ...$$$$$$$$$$$$$$$$$$$$$$$$$$$$$$...                      ",
"                      ...$$$$$$$$$$$$$$$$$$$$$$$$$$$$$$...                      ",
"                       ...$$$$$$$$$$$$$$$$$$$$$$$$$$$$...                       ",
"                        ...$$$$$$$$$$$$$$$$$$$$$$$$$$...                        ",
"                         ...$$$$$$$$$$$$$$$$$$$$$$$$...                         ",
"                          ...$$$$$$$$$$$$$$$$$$$$$$...                          ",
"                            ...$$$$$$$$$$$$$$$$$$...                            ",
"                              .....$$$$$$$$$$.....                              ",
"                                 .....$$$$.....                                 ",
"                                     ......                                     ",
"                                                                                ",
"                                                                                ",
"                                                                                ",
"                                                                                ",/*frame*/
"                                                                                ",
"                                                                                ",
"                                                                                ",
"                                                                                ",
"                                                                                ",
"                                                                                ",
"                                                                                ",
"                                                                                ",
"                                                                                ",
"                                                                                ",
"                                      ..                                        ",
"                                     ....                                       ",
"                                    ..$$..                                      ",
"                                   ..$$$$..                                     ",
"                                  ..$$$$$$..                                    ",
"                                 ..$$$$$$$$..                                   ",
"                                ...$$$$$$$$...                                  ",
"                               ...$$$$$$$$$$...                                 ",
"                               ...$$$$$$$$$$...                                 ",
"                               ...$$$$$$$$$$...                                 ",
"                              ...$$---$-$---$...                                ",
"                              ...$$$-$$$$-$$$...                                ",
"                              ...$$$-$$-$-$-$...                                ",
"                              ...$$$-$$-$-$-$...                                ",
"                              ...$$$-$$-$---$...                                ",
"                               ...$$$$$$$$$$...                                 ",
"                               ...$$$$$$$$$$...                                 ",
"                               ...$$$$$$$$$$...                                 ",
"                                ...$$$$$$$$...                                  ",
"                                 ..$$$$$$$$..                                   ",
"                                  ..$$$$$$..                                    ",
"                                   ..$$$$..                                     ",
"                                    ..$$..                                      ",
"                                     ....                                       ",
"                                      ..                                        ",
"                                                                                ",
"                                                                                ",
"                                                                                ",
"                                                                                ",
"                                                                                "
};