/* XPM */
static char *result[] = {
/* columns rows colors chars-per-pixel */
"128 128 76 1 ",
"  c #6D5130",
". c #755736",
"X c #775939",
"o c #7D5D3A",
"O c #8C6436",
"+ c #8A6837",
"@ c #84623C",
"# c #8C663C",
"$ c #8C6A3D",
"% c #90673B",
"& c #936B3D",
"* c #9B6E3D",
"= c #95723E",
"- c #9D713E",
"; c #A3743F",
": c #A8773F",
"> c #A2783F",
", c #8D6F43",
"< c #956D41",
"1 c #996F41",
"2 c #8D7247",
"3 c #8E734B",
"4 c #927344",
"5 c #9C7241",
"6 c #9E7942",
"7 c #927448",
"8 c #97794D",
"9 c #9C7C4B",
"0 c #967B51",
"q c #9C7F53",
"w c #A47541",
"e c #A87741",
"r c #A47C43",
"t c #AC7B42",
"y c #A27E49",
"u c #B17E44",
"i c #B07E48",
"p c #9F8155",
"a c #A78045",
"s c #AC8246",
"d c #A5814B",
"f c #AD8549",
"g c #AF884F",
"h c #B48346",
"j c #B98447",
"k c #B38748",
"l c #BA8748",
"z c #B58A4A",
"x c #BB8C4B",
"c c #BE914E",
"v c #A48454",
"b c #AB8650",
"n c #AC8953",
"m c #B58D52",
"M c #B88F51",
"N c #BE9251",
"B c #BD955A",
"V c #C28E4C",
"C c #C88F4C",
"Z c #C3934E",
"A c #C9944F",
"S c #C49651",
"D c #CA9650",
"F c #C79852",
"G c #CC9B53",
"H c #C89A58",
"J c #D09650",
"K c #D19E54",
"L c #D4A156",
"P c #D9A357",
"I c #D6A458",
"U c #DAA659",
"Y c #DDA95A",
"T c #E2AC5C",
"R c #E7B05E",
"E c #E9B15F",
/* pixels */
"-thKAGYGzzfzcGPYZGFzcxlKzZVDxKADhxhCxZZAczGjZsAYlht>tlZcjzAju->>hjh>:hZVziskDDxFYLzLzTcDGAcYADlZYuhjxVhujZhjcGlhhuhu:j:Al>+:=::>",
"tueZtZGkLZxszGZPkZKcGZPcGKKDxZZAAZxZZGZLAZccAFDhGslxjlsDZlGxuZV>hjV+@lVVVlZTjPkaGcYYYzFYFFGGPGFVZh-CLxhhtcjGhulsjhCGZDxjZ+hu&@&*",
"eihjZxxLZZhGkGlxGGTcxLKKAZZshVhhAuxhxZKPPGDKYzZGAxxLcjLKPzcxZ:tu>lj*#V;lZxDLVGVhKLcTsESYcchGKGZZFAxlhVCxjhcKYGDZxljsDGCjV>u:--,u",
"5hhuhlZllhlZGG:LkLFZ>ZGFAAjVxDKllAhxZAxGZKzF>SUcLPkLYKGGKPGcxZVljJ:u;*AhxKGxkxDGtcZcZSKGFYPFZxZPLDh:ljlxlcZcPZKGZcLAAxLxCxu.uuut",
":xljllLVczhkGGGGVGZsSYZGClZuhcTKlVGzGZLcFPGkGZcFFGPzczDGZGGZDZujuh->eeteuPzxlZkAAskzLGZYcGczZTAAKhj>luhlxxZAccSLPxxAZZhDVliutt*V",
"#GjZltuAZzxtkPLVGrLcG-KxGxhx>t>xVZucGPcKZLLcFzGUKcFKFGAGPZZKGKGlZ-;jretVjjLkxLLZKxGGKFLkzZYDjcDKxlhhxAZCZczzczUcZALtl>ct*u;jtt**",
":hcuxjKuZxxuxcxGxcsGLckZkuuh::::GGzcGGcSsFLLccGcFFLGLZKZcAZZFzcul:V-t1juVlhhlZzAxuSFcIGFZczZLGVjZDllAYGFULFKcczKZKLLKGhheettVuVC",
"ejxltjtDkc:tZZkDFZGLYZcFjl:u:h-lAGjDZGGFcGUGDzUsLKUZkKKDKKzDFLVshKj*5ueDuu:luxhlZLFcKFGLclxuZhjGllhZZGGDccGcYFLcGGGGJJh:uejAuVuu",
"AAZeht:uGhZjcZzGDAcYsDuxlsVhjx:JLZLLszccczFFzcccaFcFGKzKPFKFZGutlxewhljtFuzDZuhjhxxDZDs:hhZD:>KYDlllGLADGcGGFFSkSGFYzzVxChujlGAV",
"lrclZtZGAxluccLPDLGGAGZutu:jZZhljGxGFc>FcFGLLFLccFcKcZPLcFcZKGhZjVwhl%t;xjhxlZVxGZsZKxDLZZxjuZxzKsxZLLKGZFGGKLccFLccsDTKl-hJeAjV",
"ehjklVekjulllGJLCcSGjZZGhlAhAchxhlcGGUKKGLzSSGFzLzGcPFZGGzLKGVhulht1u&*hu&hxDDDCzPhZTKxhuLlxuJhsZCxLFDGZLhKDDUKGcZzzcPDDVhtVAjju",
"ZjtkthZjhZGDcDKhFZDzGhjjKhDLzlhZGtKKLsGUIaFILISacKKKGPxGhZFZVxh:xlVel%j-cl:;xG:LhZuskZl:hcjjstGCcZZlVPDZDaGGLFGFkF:ZZLDChltAAjx;",
"lZ:CjeljhujlkcxAhZKZttAjZjzGxAuAjhZzzDScLzcLGGUaLFScFcAlxjZZjhxtlle#:;w#*xjZZLZDGtuAZGVjuKZAcKuFZxZxllDFxGGFYUKKGKNGcSzDjlAZktzG",
"Vh:Ve5etlu;hh-DZZkxhjVKuKGDxGhhZAZDjVFzFFacFLFGKLIKTGzx>huZ>xDjlhleui<51&Z:hGGDAhk+FDLLZPZVKzxKKTFcLjhZjLLUZcFscGZGGcDGVG:PrZlZl",
"t5V%txulllkAz:lxxPVhxZzCGGcPAxGujZxsGDcKGScGGkcLLczGjult>:tjuZjxlVD<u@#&VjZhDG::kFKSGSztZVZZxZLZFGZKZhDVZDLLKGGLzcNGDsklzjZAZIAK",
":jDtlhtxVVh:ZshLZGKjDGDscSKKAVDKjAVZcjzccGScKkGFLSFcxxhZluujllhZVV1u*@5:tAZVLj:KcLcFLcLAcFGKccFGADDcxZzzGcGDGzacGGRzYZlDZFjjkVtA",
"VVDGuVD>VtxAxJzGcDGGPKzTzFzGkLGZZcZGuxDzVzGGSzLFVllhV:lVZlhtllVljlei<<t1V:;jjhGAGFGGdzFcGYhlDKlGcsDckZDGFxGcGzGSfIcKxVtKKscJKhh:",
"jjVAjtj>jVVAjx>YzPzxLzGPFLxGLsxjVhZAGLjZZsGGczFLzADjhllxDjhVjlxjltlwwt@VkjeGjKD&tZcccfcGfPxxJAcYxsAjhZLLFFLcczLszcKGZGZAAGxAhhZl",
"jZPZKxuAhjlxhAJZAVsVLLccGKKZPZJhVDZZZZDLSLzPcFxGFZGhVhlhlx:jDVcZlhteteuiC#jhxDwAtAKFIKIxlKKZCcZlAZtDAZGG$ANFLLcFLZc:uthuZ:lZuVuV",
"xjGuGsxhhxVj>slZcDhxZFYFGcGKFGUJZZGALKVZGKcGUGGzxZAZDAKAAshAGDFltleeV&elhGh*leLZZUzZNGDDJZzFZzKADAAZZcSGcLzTYGfISxH::ZjAxZVljAhu",
"utxZZZxjCjthlt:lxZAVKuxKLFxKLGZFGVVxFcZlccGzcYFjLZGcZzClZxlhAAzllVlFe1u#j>Aux-&jscLccKIGKLKKPZYLDLDDcYYaFSGSGcGZZzlVhuxKZZCZZCAc",
">GGxGZlGZZVhlj:ljxClALPzZZZxZhzcKGxAcPLFcKGccGLFzPGxLZcZZVlDGxjxjxejlxhV%AAAhu:FczLczcSGGzFYGGGxZxGLLSzgGLzIIxZclZVjlDFAVGxAxZjj",
"GxGGGYlclAGxZZl>hAsGGzZZZxFKKDFZGGxKLxZDccsGcLGLGKZGZzTDZlZAct#th:ZZF:jjZjVKU&kscGccSKZzFKTKAKzGaFsFzccFc9szccKcZsh:VCZGxDZxZKDV",
"GxhZPKlVAPxKllVhADGZhlGZxFZZUKZZuclGhZcxZljZFzGGcGLcLxaFhhLAIZjuhuKDCljhZh:xGZzKDsGcKGGGZccZGZUzLSGLczGFZFzfFRcDl:>DxxGlDLZxuhjs",
"zZZAZZhcZlGKxJhlGZZDJ>VGZVGxLFADJThVJZhDlclGzFcLzSsFFzKGDGVljuhV>ux5ushljluAUxGAIUzcKccxFKxDZSzcIGKzYKfcGzIGUGGhhAZkGu-xxACVhZhh",
"hlAhVhcVZZVlsZuDFjJVAhtGZjZVKxhhhuxhAPchlGKSPPYLGGGsMKxsFZhju;ehj%ele$uAZGiehDZcSZGLxxAFLxZzLLfzscaIzHLNacIARIlAKZuuxlGjDl:xll>Z",
"jVujDAGLhPxZtlZtZzZsxC+uVZVj>GAhVuljKlZFPFFPSzZcKzKckzFcGAjZ5u;uj&euAthGthjlFjhtGGFGZVhxZhjcKSFYSzEzFFKaKcSULZZZuAjxujZDJhKxDu&:",
"uZAuVZAVVVjA::ucZKKhl>hhhjhh>hhZhZlVxZKccsTLcLSLKGGGsGacNGttttuu%thltlsejtVeVC+UYVcLZhjDcLcKFcFsNKIGFMcMZUFZZcUljxGehtllxZusj:uV",
"jZGlVZDG>>htt>ujZlxZtjhjjhujjVxVKLzVxNzGPcSSffYsKUc>GZksDZhet:h:eltteCl&cDjx:UDFGGKGhhuxl>ZFYGUHzG=I-GHGgIcYzGVVZ>GZVVeuKhh:u;uk",
":xVGhZKGu>hulhhxxhkAVhAjVjhVZjFxlzcczYFzaSf>GFLGLcxSzFKxDGltj*=u-jVelweileAVcAADlFxGDjxZVCZFGzfcSSMcaGaKGkGhAjhZVtlte:ulljjjxjl:",
":z:VzAZxjjutuujZjlxhhAVj:Zj>ZxDLzFUcKKLMGLxYGFzLcLKcFkKPKZVehwZkt*wweeDCcVhVFcAFZxGADZZZFAKFGFafazMacfMGYFGljGALAtjlu;;:h:Ck:jVl",
"GJGtuuGx>hjuxCLAlj>AxCxKKCZjjjZVcKFKFcLYaccfafcFLKcFcSjcGZlthlu:eh@th1csctAzALLKxKGlDKPZPKGGKFcc2LLzaGNIEDGhVeVLZltj:&h:llZxuxhh",
"VAGAVZjZhjthJxxxujGlZVkGVlxZ:ZhDFFSZGYGfFgHdF=fSLLZKkFKZFth>u;j-l$-@:xxLZxGIPAKPKGlGKFLccFaKzHzgfKSzGSSGxKKcuxaAGhjux:>:;uu::Vlj",
"VAsh>ZzxZKxZAhJjhluKKGDkVKZGlZcxkcGGFGccczmMGpdKkszzKxFGGZlxu:>;hh:>lZujzxUcZIcFxKAGcGxxKzFzcfaLcaMzzcGGLZPxxxZAAVjh:xthuClhhjGj",
"Gt:xGjAjZhhJA>KZAGZkVDljuVlhlVZFFLztZGGcsMNS=SMFxKAzPZPZA>J:+-*>he-hGZZjDhSGAUzxccFFcFPGMcczMzFccfz6cFIGLxxZLVDFxjxju:u-lVAKKlkj",
"VZVJxZGZxhLLGVZFxKuC:ZZCJVDLZxcGGzZLKZzs=Ua8YFFUxZAkPxYLhKcxVjh>ueZGDZGxZZcFsADFZGFGGKzZLGLGfFMaGGGMSaSIzZAGDAKhuZlV-Z:htlxDtGZs",
"ZJPkxccxhVVZjhVZGlkjhZ>xhjAlzcAcFS-FZGckG93KsGcNxKcxAYKZZZcAtl=:hu:VccZc:hIFxZcGPLGKFGKFFcZKFKFdzFfcMFcxZlZxu:lDuhhhhhuljYDGKZDG",
"GVFZxlFZDj:ZxUxhLVAVkl:uh::uhGxcFGDchxhGscGGTUcUGZZPVZGcZAGPxu:lVtZAZKKhZA-ZFkYsczszPGzKGFDczzfa=zcFUFGllVDAuuVVx=A:hlZKcYMxDZZx",
"jxZZGDThDAjsVZVjKKjVx;:V>h&tVLxGLLZGzGZAGMcczKzFlGKZcYzYADZZZDZ:k:GZSZcG:AGzcGIzMGSFzscGKLZZfKsKFcKZKhZZluhl:zlkuVulZhPzFcScGLDc",
"JjZGGZKAchhZxxhPG:uuV;&u;>-%jjhGxFxLLKGsGcccGGczZcGFFLLxZZGxxZZsl:Cl:UGRzSDCFSSczKcSKaKGZDccGHLFZkGYcYCh:VVVuxuuuuljDZZKsazssLVD",
"SccGzFMLUGKKxVZxKZxAjhh:Cujhx-zcFPh:kzcKYzcZxDsLzSKcGFcGSDcSfScSLhVAhZDzGGGVZZKf$F=fFGYccxcFFFLGKFZYZhVAlZ:s-Zjhu:lZxKZGYIzzaNZZ",
"zGcYzaFFZsLcAZDxZshlh>-x>>xlccGcKxcVDkFcfcLLzVDzZcLGPccDSGZTFSzzDIcZxAVLVFLLGLIzNLIcGcFcIKGLGFRFYZzlDDAhjjKltlllulVGAKLzzkGNMGDc",
"cafaMfzcKxFczFGGKUGcxhxhjujCjPSGZLKZhlHKYLKGlLlZGKLZcDcYGUccGThxcxFSDL:xcSKzDPLzMFzKMIGG+FccLzFSxscLllkV:llVZDCVlZcZPZFGKSSGcLZZ",
"csaN=bp2zzxcZxkGFFcGkLjcZJxDAZFLYcxKYGzYKSZK>ZxDARcxZPKRLPGGPPDSKZcKTGTLzcFSzZLUcYccsLTcacFcsaGGZZLGAVZzDCZZZDZLLlxxGZxLGNzzFUZc",
"FcffLpcFBGFsYKLFcSzGLGGKCGxjcFLGxxGxzfGccLGxLPxFDDcGKxGcYFTcGSczGLFPUV-FYcGGYcF6FcfKzF>KFKGc=FHUZKGSKGGhzZxAxZkGZczVAjDLLaffGFsc",
"cccFfa6nbcGcZczYLIIczILFPTZSYcfcKDL>azcILYZcZGZVzYKzxGGzKccPKFGZRZGFzzGKzGZLNzsFcFcLLzGzTMFFScfKUacMIcSzPAlFLGzGKKljADJZIGKaLkGK",
"FFFzzfp+LaccLLcZGSczzFGccszSLcLcFLKcMGSzcZLGGPKGADZVGAVYPLFPTGcsGsLDDL=UKSMcFSKcLFLzfIYzFcHSSFUsaNGKKcKcGGxPxZLLDSDADzkZKz6YGzSS",
"KzFFGcc6LFzsFSGzcSKLsSzGcFcGUfFIcGMcSbZzzccPFZcZGcxGjuccGcFGkPGGRzGIUzFKcLSfLLScYFLGFFGMcFrLG46GfMGfzSSMscKKZZZcFAKGZZZFFMIzzFLK",
"KUzGGDZKLszGKSGSacGScFcLUFcUGFRFcLBcpccfcFcULcGjZzcljVuAcZGGZzGGZVZLZKZLsJzKLLcSczFFccz6gGzGcFcLUzczSGGsUzcGKcxGhzKFPKVZFZSGLFcY",
"cLLZFZGAZGYzScGFccLFcLzzsfGSM6abc2dvgcnasTGsSLcZKYAcV*ZZGFcAGZFsDFLGhKZAZAFccKcKcMKcMSzGfLIGxfFsFcfMzGFGFFaUKPGZZGsTAGC>LFGSGGcK",
"cSFSYGDDGGZKZccSGSccazccSF>L=6MzpmHcFSFGDDDGcDZDcLZuhx>APGG:sZGZZZZzGGKxGKTccsSFzszKzzzLzML=fcza=zG6FcUSGkGGZLLGxFKGKx*lLZkkaYLK",
"SGFzZhFZhGGYcGfSkkYKUFGFzzfLzcGGzTSzLgFGPGcUYxzDGKZZAhltzGGGGhacFxKYDKGxPZKFGScGIGYacczGfzcFZzcMzNMcaFcFFczSGzFFKGZzAcj>LcZKszcc",
"ZcZDxDcDLx>ZcaFLccFSUMFSzYc>cFGGHLIGFINIzKcGGDZZhDxZuxuVxYKxcSLzFDzFLGlcFFzUMKzPLFFGFxPzLFsFfcGcfMdfSMcGccFSZZsFGGcPDxVVzDGhCGzK",
"GGzxVD>xZsGsYGczLaLzYFIczDKzczazzcFcMcfIGLGUDjGhclu:V>AhjDGGLKGzCGDZxKZZfcLFGYFzTcLzcFFFzcFGzFGGzzfMMSYFzSzGKGFLDLx>LDAGDDxjZZZz",
"hcPDLGGGSzFGSFcUf=zfL6FGDzLZPzLLacLczMKNDLAZGKjGxZC>:CxthcZcFFYIFKGFkLZZSFcc-ccKKNfFcfzzccUcGZKFUczMFFfcSUFcFKkGfzYAZVxusGZlCDsh",
"zjLjTzcLLcGcGFGSLzcLcaIGGzzDsGGcLcFzHGKGZZZKsxZAjZujVVl:hcSGSLYcZcLcGGGGcazaMTcLfscszTcFKKsFxYLLFzL2fcGSLGLFccZZcGGzAxxxjKVhhxcD",
":AFxDcGcZGLSzGcFIccfczZhDZcGccsGTcFYczcZcYAZFLAxAlhVGhxZujSccffcFGGFScSzzsM6cMGcGKcNfFZPFLczSLcFMGccFnzIsKKZLKAxPKcAGxjGhGGhsAhs",
"hAxV>GLKKGcUGcGccGILkAlhGGjlPLGcccYFcGzGDccjGhkjt>>KGKZZFjSPfsYcFcxLsSHHcFgSzKMaGMGKFFGFNFczzzLczfcpFzFcZFkFaKzZhlGGZxckxhVVVhtu",
"hV>hYDcPLKSSLaSSzKFLchhVGKRcGZPcczcKPSKxzLchhj>ZhhZzDGxKLGScKLzczssGKcfEFzgfaSLGcYxccKGAILx-MFLFfG=gMSFFGzxAFxzDKZGzGAGlxhhxAA>h",
"u>jDxluLGDkcacYcLccLPKhZZPLhGGPcLKcFczLczPcl:uVxu>kA>utGccGScszFKLSYGgGfzKKaSLLcKfKzKzzxFLKFcczzGGFgMzaczPGZzFZGZAlZZxLVjhjxuVjt",
"txGhVVhc>kLcZxLczILzSGGLaPGsGSzGLxGKJGFxYFGPZjlzZVh:lluujsxKPxf6GN6cvaNFczNGYzFLZLYYFKGjsZKcUaxFLazcLGzLskZZhAshZZhZjCAxVxxAh>Kx",
"uAxjZGjZsYjDTKLLGFzKzIccSZcCGGZxGzZhAKzTlSxLAVAtuOsujujhhGFAcFFcacFcGMG6zNFIKGGMcGSMPKFzxZlZxacfcFKcLNxFFzZshuVlAxllVVjjuh:zjlxC",
"ChFGAVchlzFhsPaFGGczFjPScAVZczVGlxZZKZPfsLZFccxAVKjxulxjhhZKZczcaNdfgcFIfcccGgGcYczZAxFkxKKLFZLLLYkKKGKFxFKKhhZjZPlVlClujhcZAx>l",
"ZAZcZZclFcAKGZYFFYKFxFFGxDZ>ZGsjxGxDGzlxVzZkPTYcKcxxuZAAjClsccKcMLMffHfGcYSINFGaFcLKGFKKAVczFcYaccGzZzPZKkZPTCltjAZhVuVhjVZxjlux",
"ZKxDVGFJVVhxVKFGZGcLSFxFGksAZGZcsxlGLzFKZZGcGKLGazKGK>FGszLzLIzGfLFGFczzfKzcFFFcMacSGIYDkCFZKzKYGLDFIFKZPLZLGLYGlxhlDjxuZZxADxlG",
"ZKVDxhZhV>kZkPPGTGLGFZscxxDGZGZAZGVjGFxGLPYGzZFcGcKGGKxzGLFcFGIIcczGfccLcLLKcGIzcccFczzFGcZxkDKfGKFDIxzxGCGZsFGZLGccDGGuzVlhAGhl",
"ZxtxujzZuVAZcDxxKKzFGGGzGZLcLFZKLAVlSGKKLccSccFZxGGLFFFLLGGzSzzYIGTSLGNTFLNFFzFFIGaSccNLGkFFDsGcGLkZFPjxZhZGKKALFPZFlZPlxcVChlV:",
"VKjujVhZx>AkKZKAGcLZZZxRGzFcLGZZDAcGSGFlZcRZKGVsKfGsFGFaaaFfMFFzGSLSFGUccIzxKFLLGccMZcGGGYazZGjUzGGlDLLhVkZkcZKKKGczZFGAVGxtCGAC",
"KcVx>xZhZZxxGZxGKFLLFFFFLYZFPPLLGcGVGxAZcGGZ;ZDxKazFIaFacFNLzczcGcKNGFcFMLFFcTKczMcKkNFfSILZjTVlVzPZkVZDlVVZCAzxKZAcKZZxGGGhhjFc",
"ALZ:hhxhPJZZxxFKGcZFKcULcPKzKzGxGxVZKxYGcFGGxGlkKLKLKzUczGMMczczISKGGGKscccKFYFGsacsSMvzfGLALzZ>CllhVlllVzAVZZVxPKSFLkKzsCVZVhxG",
"GkVKFxxcGLxDZFFzhZzFFKFGZZLGxZZxKccGAFZxxKxPZTxDFzFLGKUc6zzcGaSScIFcLGKLcFFUIzcFZSINcffIfZFKZxZZZt;xVhGLkDDVZADxFGGPzGGAulzZVDZx",
"ADPuGFzLUZKxGsZLZAZKKLKcGxZPcxZAkDlZxZllcVsZZGKZcFKKccSLFzcIYafGKGSGMKcFMYNGGzKFGLLNNSdcGYGLCVGtjxh:lzDVxDLZDVVxLxKKFKFFxKAVAzjK",
"GPLzKZLLLYxGzLGcZLZkzLxFLcxZlcAZVjlhAjhzkGUZLkhZGhAZhZGKLGDsbSSKcYGGLKxZLGKGFczFDGKGafScAVzV:lZlD-ttlZZDzZGGcZZZxZGzFSGFAGVcGGxV",
"KPZKxFcGzLLYccLcZzZAFFFGcVZzZGKDDGZsGhxxlAIljGVZGZhhAlGDKzcFcLKFScFKGKkKFaZlzKxZxskISGcxLGhjCVhZZllAKGGjG:PDGFJjjxZPTZZcGVstDxxl",
"AGsZYcZLYGLFYLZKLGZFZxLFZcGDxYKGGGccZlVLcVlkAc:lAhKGDh:VzGK>fKFcFKZzCLLZKhhAKKPAGTGAczGclZ:tZ:jlhhk;jDKVcUZZ>zFzhVLZFGSYKcZACKxx",
"ZhGkZhxZcLGZGsFFFxFcZDxLZhcUjKDccPVKGVKGGACFjhDVADGhD:CxhxKcLsTUFGlDzchuxhhuKlVKZZxGIKGkZl;tlhV:Ahhl*ZZZxhZFlZhzcGszLGFLLKVGZxxK",
"ZGsGxZZcFFKFGYzGLLULAkKZPczUDGGPxkGZuZAjkAZhjsAkGZhZh::;>h:uLDZxcKtGhxxhhxZhGDJFGDFZZZuehhu:+::hjhjxlDZDDxkcZcKzYYGYzczLcZkDAKAl",
"AxxZzAVcFPZPGFLZUGxLFGAxcScSGGGGZKZcAGZxGGljhhZZZjZVxu:=AxcGZxZGGzcskZVVVCADxACxIKAAGljVjetVV-V:hjshAcKxZjhGZcfIxGGDPcSKKcPxPKxx",
"hZFZu:xxaFGUcFLcFFYLczDZZFGKGcsYFKhzjPLGLcLAZVFDCZjhVuhlulxAxKDZlDVGuhhu:hZlhZhYxjLGlGVlV;l%u:xhZhj;sDZzPZZZSFGzczzKKZZcxYLxGcjZ",
"ZGjA>xGhGFLFGLGGFxGZFKKxDKZZGGsSZkAPGZcGAZGVVlKljVjV:hxZVGDG>xVs:LGZDu::z:Z*Zxl:KGzIDLKeVuluV-lh:elKuDYAGDVGcFcGczcUsLkFs>ZADKcZ",
"ZxGGFxccZKZYKKZLccFczFcGLGSFLGLDKDZZZZKsLGZjZZAGccZcZAhcGjxGs>ZlzkG>uA:rjtheVlVSKVxYALsV:uZllV;VujAuhlPDFIFcczSSccKfFccFFGcxZGGZ",
"KGjxZAALZZKVZZzYGGccczcLFIFKZGVRLPZkzFKZFLZxZZALUZFzhKL>GGDZcz:KZCVV:jV eihlu*htDlDZZGZZ:jlujljxhh>>ZlccFcGcKFMFYRLGLzLFKLPhZDLV",
"AG>AZFzaGZzxxZGxzLGaddzGcZFFZPZDZZFFFzZFZZFzxGZKzGLFZaZFZKZZFPZzGKsu*$x+<tt-ueil-VVlzKGlVhlAVhuxuZZlhTLGcffGFGLGcFLzFGzFLFGGLFZZ",
"xZPPGZFGFGGVjZGLzIGLaIcGcGLcGSGFGzKzcZYFsYZxVAhszZLUxAKGUGZZLGLFZLPh;hV*t;.o@eu*exDlzFtZjuxAujhjjVxAZlcPcxzr6scSFccLLcUTLLUzczDZ",
"cGazzcLcGzGZZhVczFfNMFzFcKGZZGZsZzcZDPZPUFZZluxxUFZGYz6LFZSLKscLLGxFGVAV*u*w-u;llZcSDsDAcZKZlxcxhxxjjDFFFKcLcLKFzccGFGSGLUGGLKGL",
"F>FLzcFcPPLsAjPkcMLGzGafAZzFSZYGFZcxPZZFKPGPVxlxcczcLzFGcFZZsszFcRZzLhAZt-V-:VkulllxxAGZDZAZKZxKDjVuuxKGSIMMGHccLYFccFcLcccczFKK",
"ksLzscczGFSsLZZZFMcLFFzzsxfczcLGZZZGGAGKGFZFKcYAKkcUZZGLFFcKzGcLZxcZZZuIZhhAAhxhhZGAllZAGFTKZKGDhklhLKGFLKFcccGFGcIMFFFcFzcKcKzc",
"KzsLz6L6FazLSs6ZmccNzRGIcUSLKYVGcZPLZZGDKcLAAGcPGGZ>GGLSczcPzcFFVlcZFKcGLAhkAcxxA;leAVGZGhcSYcCZDZCAuLAkZzzKzcscczGFcFFFLGGcGYFG",
"FccfccSFfzLSSMFBfNccFGFGaSKScGGGcZxAxGjxzZZ>AzZLLGGGFGGFFcLGGcDLlVZszGYGxZSGVxclzxhlxcLZKsPGFcLKVlLzxKZKxLAKszfcFLzGfILNFUKUckKP",
"FzFccIz+GzzLavppfvFFFFSzcSSGYGGGGccAAAAxxxZZAjcZkccLccFUYcczTPxsVGKxGGGFcKcGxZFKxDKZZGFGcZAzKcKFxxZGAuxhKksKFLcGcMLzFccGLzGLKZcc",
"FFLfczTcLUccd4aSFccKFcGcFFUcKcLFKZAGxZZhxjKAGZGKGcLFFFILLxZzGKPGFGzGUScMMxsfZZGLLIALVxKFZVxxcZcLc>TKDlPGGYKJPSazIFMfFccaYGzccLaj",
"SYcNFcGcz6LzdcFdszcLMczScKGGLzKzYZKxZlckAAGzxZFLFaYSLFzGsZGLFULsFGxxNcscacUcZsIfzcDKZkZVVxAZlGGLKGGKLZGcAxzGGZGGFFFFccIfFcGcxVjV",
"SGczLcfGfFSFfFFNzKScccLcGYGGSccSc>RczkAZcSLcZcKKLzFIcSFLzFFSGKxFxFGGSfcNFcUzcGZLcccxcZFZDDcDZAKGZFKYVZGzZZ>AKFUFMgSFGczsGGxLPGhZ",
"zsxLzzFMFGMfdFGMccSYGFcfzfcScGLcFcZGDSDKKScYzzkcFFYGTccLGzzzhLAKzzscLcMczacMSGIzFGfcLGGsAZcGLDSzGcxLZxGkGcPDzxKfFFSSzczGFLZPxVZc",
"DZFZY6c6bcFccffcGULGczcGcScLFcGcscDcUKzcFKGaFSZ>caSLSFUFGcFcZxTGLccZGaGzSaYIGGFKcUGaccUGYGGZFFGLcSFFGLKxVGlVckZKKzGzGccLGGGzGZlA",
"cDVLFcUcIFGGGScFGcSLKccKcScGGKccLKGGcUGLccckITccccFLGGKKzFKFZcFLcKzFfSaG=dcGFLzSZSFUSFFGxxGSGGFSGFLFKKcZzZGllAFcccLKzLYZLzGFGPGG",
"GAYGGcGcZFPkGGZtZLGjcGZZZLLGLcGGKKcPcDFZczSTDF>LSSLcGZZZFUKGZxcFcLzcLfzzfcczcL=cGFMSccfZGZKYccYGFKcKcUGLxlKjZZGLFLUaSaccFKSGScKL",
"PPGFKSLGLGUGxGjxZAFFGLKGLZGcLULGcFzcYLGzKLSzascccGGxcKZGGFK>AxZxFMcccMaMsSYcMaGGFsGczFzFzFMFUKKhczFcxFcLcIZIVFScLZ>GIzFHaScFKFzc",
"FGcKFFcFYzGcjxxhALAZcFZALFLGZFcLTLcKFFGADGUSGkzFSSxFFjDKKFVKxF>GcaKHFczzcHFzczcYxFzFzKFFZccFFFKzLGKUKYFxcGIzDSkkLZLkGczzMcFzcFFG",
"SKKSzUGKZJxZjhxhxxLLZGLxcGGFGzzFsDsDLcsKLsGFczGGGGcL>ZxLZJKzxGPFcccgSSMFfzaFGMzFSLLccMGZcLKaGcZcFKxUzFFcGLAGKS:lULLFSGGccYZGUFKc",
"zsPLLLLLZzZADhAkxxLGPhZhKjDGcczFLLcUGGGADzGZcLZPlcGcZcGxxFJZZZcZzccSd6pSFFKFGzcGKNcYLFcZFxxKZFGFZcLxuFZllAkxlw&*hZPLGZYacSKFcFFZ",
"LzZzYGFLAGtGhxcktKGDFhGPGAhPcFFGzFGZxGsAxGLZGtcsxZKGAZzchZzhZzFcGMszLc=FKcGczaMFcGccZcYZZZKxPzGLZGZZhlhKZAlhte1eulZZZcSSGzZZLFZZ",
"FFLFZLcGGccA>juhKujAxsZZczskUZxzDKZAjZjLFFFhx:VAZAGKZKcGKjuxZJGcLzLfLMUcGLGLzcUSMKcSFFFcPlLZKGZZzKLGtlhxlDV;i@1uklLKGSccFxSzKKPs",
"PGZFZFLKcZLjZxZZVVZGDDzZxPKYGKFLzGGVGVVKGLZGVlhxVCZGZZzJPAZD>AZZzFcSzFNNFHKUfaFcSfMGcGLKFGKLGZZzZxVZtcttj::&%t*h-hhzczGcKKGYzcZP",
"zcLZLszZzTcGcGKxhZZAxKcFZZFZKGFZZFGFVjZjGxDPlj-hjjZGDPZxZxZcPKZxzFFfFGfFLczzfGaaMccpSFMLKFFfFLFcxxDu:u;uh:&;-<jhjtzPDGSLPKGcPPGc",
"ULzcLczSFccSZZxDxhVDhDFKzLcUzLcjDcCzZFxDkZKKsADtDAjAlZZjjZZDAxZGccKKFzL>SFKGSFczLcc2vcZGfzUmFKGcLZZhxj>hu:&t@ej&hZscVzKGcFGKcGLG",
"zGcKcLFcYFzEPFcGLZZxZzKGZxaZZxGTFzLGDZDzxljhPZZlAsZ>ZxhxKlAGZKkjczGMMfKSMSccUGMGazGMzSxLKcKaYLLLxZKhjuj;*h::h-:sujCzKGGLcGGcLUFz",
"sLKzccFzcFYSZFFzGKZFKcGFFFKGGFxccGFFZkGZuhKZGFhusjjuxhsKhxZcZZAZFGYczULFScMSFUffcgcGHKZFIKIccKFSCGCuJh>>#hsDhxDZjAGGZcFcPGcLaKcG",
"UzcGZLFrzZFccYGFVZDLKFGKZLxcFzFFKScGTGcKKKFFZGc>:xZhhuhAxxPZxczZZcxzGZFzccfFNIGgzNMSxMFGzGFcYcccDZZLKGZxh:llAjxZZVxGKDcZSFGFsaGc",
"aFFFZFYsFcIFGsKFzzLZcFKccsFaUxzzcGcfSGfFLsLKZAGh::JxxKjDZGLGKZhcZZLYcGKFgKccHccddMccccfFFGMzaZGFFzKGKAZhZjVZVGtADDKDxGhzScFcUSza",
"FPcZFGcFFzSFLFKcFPxKGKcKKLFczxZUGGzMGUFScUFZGcZ:AuGxhGcsZYkZGZPZzzZDcSFaLccGc=caddMFFFxczSFcacAKLKLYLLFZxVAkAcVZVzDDsALLSLcczLzU",
"FLZGPscZzYKGGLcKxUGGYLLGccZGFGFLcLFscFGzGLkZcPVujhDGLZZGPZGKKPGPZZLsDcfzGNGGFcSfMzasabgcFxcFcGhzGLGFcjPcPKGLLhxAGZLzcFZGFScSGzLL",
"DxZDxZZGFFZZcGscLcLFFKLzLGUFxkLZFckkzKcG6FSFGZl>>jjcZGZGGGPKsLFLKKxhLZGZhzccFKKkKGIccn=cNMfzLKxFFccxKFGGGKLcGFZGKcGZAlZPZZZTFGKL",
"xkZVZxAtxFFGLL=FZxZYGkKPFKxLFzZLkFzGczczTcULjLx=jGkGjZDlzfKLDGGZVZxVCxxxLGzLzxZsScMdcngSSFFKGxlccLcHZUZccSzSGFDGZPLGKlcjPZLLGLKZ",
"VVuAVhAVkZczGLFGZGZKsLPGZzGhZZZZKkUPSzGGccchAGhjZAszjZzjUczSPGLDKGGxGklGDsLLfKFzMKLSbMzGcPzxAAVcxccKUUUFGcYSLGGKcDcxlcAGFZsZZPxc",
"YKVkZkjhDTzZxFLFFcGzLGsAZALKFZZKAkFzsSLLYcZcjGxhAKPjxhxPGSFjzzGFZZGLLUGLPGZGSSGccMdfSSNUFDZKuAJVlkSKcGKzzSSzcSZKPxAZxKGhZDKPPxjx",
"hGhVVVVGxhxsL>FFGKxZkFxKkKZPZGAZGGGFcLFFFscGzxAZAZuZkjZxsczLcGSPGcGkPxKFLxcKaGMGcFSG=LFfcGKZZcjsGzAZAMcfMccGGkFFGGhKZ-ZZGzZDxAKZ",
"ZjxjhAGAKGPKkZxUxZKKxZxxGAGAPhLFPzGFGYGcYTZkKFzhxsZucZZxcGKGzKzPGLGLGGFHFLFzKcSSfGagfzZZGAAFxlxZKlZcGZKFzczSIFAUcZZZAxAGcDPth>GA",
"JhjADsZZFYAxLLZLGKZLAxDhZZGPZPFzGcZZFLZFsxGLjxZFjxPKZLZZZPxPFGGSGGGVLczKzZGzcSccFLKxFczlhtDYZZtxx:KZGKYzLcccGGGkDxGAjxDZPKZjtcxP",
"GZ>zsZGLZsFKZccxVDZcZkPAZALksPGGFxZFFUFzGGPKhcZjhLxcZZKPF>KccccSzzcFzcKKGLscKGGzLKcfcLFVhGcKGAJjhl:zADFLFccKclFAcZKFKYP>cjcC:>lV",
"hVZ:A=sFFLFYGcGGxPxxZxGVhLGGZAZKGAxDZZPFGcGFDPjVDchPGGKkPzxYDFczYFDG=ccGZYLGFzZcGKZscGGGZZZGhzjCjZxCFl>DGcGDKzAxfcDDczeLZZZZlPAt",
"x>hVAGscLGzLFGFsFxPAZxZAjZZcZLKZZjKDFGxGGGDZDxhjVZxAAFPZKVcZYKGSGsDYFKLGGGzKSKYZxfKcZGxKxKZUJx:uLjlDxxuhjUZZlxDLKIKFLcGRxZZxchVx",
"hZZGGsZzFGazFczFcZcAPKZKFsKcGsALlxKPYzGPYcZClPKuhAVAYAZZzGFPzUKKGLz:PKcPxFZFGszLxcsGPZLKVFAZ:hTVDxVZ-jlhuGGZVAz:hxGcDLZZPZlVh>ju",
"hAxxULZLFsFcLLZcYGPZZGcGGAGKGYxAt>GPxYFPzGTZjjChjtClhjZZtGVDFLccGcVGPGGKcLLGFKGzFzLKFPFxlDkAGzxDGjAj;uxtVjAAxAZVxl:s;DjZu>tht+jt",
"ccFSZcLsGYzLzcGcFcLGzYFGxYxYGZGhZxG>hhcGGKZLGGDhuAjhhllhuZCV:xxGFsjZZVKZcKcczcFxZkxKcxxGklZxZ;VAhAhx:k:hjh;AVKZthChxZll:Deti&>&:",
"xLLccGKzFzFsZFGzZszYxKZLGVAscxcPPxlAxxKGDDlxhj:>tx::=::xxtZhxxVVDLDzGFFGYYPFKFFFcKZZGCVcklZ:hcDDZu:h::h;lhlhlhjtV:tVu:hjiweh>:u+",
"zLcLcczLaFzFzUzFcFxZhFZAxDxtcGFxYcZLGLcGDuchZ>tjutulj*uljj:hhuZhDKGVGZDAzKYFFGLGZZkPLxVZhCjCDlAK*uhulVh;lDhluVue1eulliuuA@*ee-#:",
"jxcFzsL>acs=YczYFLUZZcPZAVLZPxxGKjZhcZYcDAGxtAJjCjllhju>LKjAjutsxthtjccxZkcxGZcaZGZGKGZuxVZZGUDlDkhGjhlxtVttll:juu:uujeejietj-#$"
};
