/* XPM */
static char *result[] = {
/* columns rows colors chars-per-pixel */
"128 128 80 1 ",
"  c #2B2E2F",
". c #2C2E30",
"X c #323436",
"o c #353739",
"O c #35383A",
"+ c #3A3B3D",
"@ c #44403E",
"# c #3F4040",
"$ c #454443",
"% c #4B4947",
"& c #4F4C49",
"* c #504742",
"= c #554B43",
"- c #534E4B",
"; c #56514D",
": c #5C544C",
"> c #5A5451",
", c #6A5547",
"< c #61564D",
"1 c #63594F",
"2 c #655B52",
"3 c #6A5E54",
"4 c #655E58",
"5 c #6E6256",
"6 c #6F6358",
"7 c #706357",
"8 c #72665A",
"9 c #76695D",
"0 c #796B5E",
"q c #7C6E61",
"w c #7F7063",
"e c #A97652",
"r c #BA7F54",
"t c #827365",
"y c #8C7561",
"u c #857669",
"i c #887769",
"p c #87786A",
"a c #8A7A6C",
"s c #9C7C64",
"d c #917E6E",
"f c #9C7F68",
"g c #8E7E70",
"h c #907F70",
"j c #A17F66",
"k c #BF8357",
"l c #B68059",
"z c #9C806B",
"x c #8F8071",
"c c #938273",
"v c #998777",
"b c #998877",
"n c #978678",
"m c #988778",
"M c #9B8A7A",
"N c #A48165",
"B c #AA8465",
"V c #A2836B",
"C c #AE896D",
"Z c #B38664",
"A c #BE8A63",
"S c #B38B6D",
"D c #A08671",
"F c #A28873",
"G c #A08E7E",
"H c #A1907F",
"J c #C28557",
"K c #C48659",
"L c #C7895B",
"P c #CD8C5D",
"I c #D18F5F",
"U c #D4905F",
"Y c #C28B63",
"T c #CC8F63",
"R c #D18F60",
"E c #CF9264",
"W c #D59261",
"Q c #D89462",
"! c #DE9865",
"~ c #E19A66",
/* pixels */
"wtuatqua0ttiptaG0tquuttuuqquppuuwwqwauQQtatwuuptuauatuutuuutq0puttptqqatq8tututa9qtaaqttaoouatqtpgtihttaquwqwgutugwqqtuWwwwwwwuu",
"wwuatqug9ttuutaM90qtttquutqtapuiwqqwupWztatwtpuqtapauuttuut00uuttwtqqwauq9wuwupa9qqaptqtuOothpqtugtaguthqguwwapwpggwqttwwuqwwuuu",
"wquawtta9ttuuquM90qqttqtatqtaauutq0tppQawgtwtuttuauptuttupa08uitwquqwwupq8tutipc8wwgaqqupootgpqtpgqaaaqaugwtupuwacguqttqwautquwu",
"twtatwuc9ttuituv80qqtqtuauttpaitqq0quuQatatwuuuwtapptuuwtpuw8iuuqquqqqauq8uuqtac8qthatqtaWowtuqtpptpaatawguwuuuwacctqqt0wauuqwuw",
"twtgtwua0ttpuqpM99q0ttqtaiquugiu9q9quitpwauwupuwtapatuptuttu7upuwqtqqquww8twwtin9qtaatwupQotttqtpawiautuqpuquuwwagatqtu9qptpqwup",
"wtuptqpc0ttuitaM89tqttttptttuait8800tutiwauwtupqtuuattpuu8tp7tapq0tqqquwq9tutwav9qtgatwupQQtppqtaa0uiauiqauqpuuwagcuupptwtppwtuu",
"ttuptquhqttuiwaG8qqquwquapquuapt3798uutiwuuwtutwuitputput8tu8tutqquqqwuuq9uuttan9wqgawquaQQqupqtpatuuuupqpwwtpuwugcuupptqtptttuu",
"qwupwtpaqtuupqpM89tquwquapqtipat<798wptuuawwtpuwtpppwipu98pt0tpuq0uqqqpwq8tptwpm9twcatqupQQjptqtpptuipuaquuwwpwwucgutupuqqtttquu",
"ttuptwpgqttpuqaG80tqutttapqthgai:398tuuututttuttwppiwpg9t9at9wpuq0uq0tawq9wpuwpm0tqdatqtaQUZptttpptuuititutwwatwuhautpattquttquu",
"tqupwwuhqttuitiM80tuuqtiapqtagat2698uuupwttttuutwiptuua0tqptqtuuqquqqtapq0tuuwpn9ttaawwuaQQTpt0tppquuuwatwwwtuuquhittupuutttqtuu",
"qtiuwwugqttuuqaH8ttipt0uapttahau36q8uuwuqtttquuqtpitua9wu9pt9tuuq9uq0wppqqtautpv9ttaptqtaQQQpit0ppwuuptata09upuwuaittuuuutuuttuu",
"wtpawwtgqqtpptpM8tqtptttaiqtaadi66q6tuttqwtwwuuwwpptawwwt9atqquuq9p0qwpaqqtuuwav9ttpawwtpQQQiuttuiqtuutiwn89wuuwuauttuptuqutttuu",
"twuhqqtgqqtppwaM6ttuputtai0tgaaa4qq8upuwqqqqqputquuwtqtwt9pt0tuuq9u90wucqttupquM0twtatttaQQQitttpuqauutpwxw9wiuwtauqtuptuututttu",
"ttuattwgqqtppqaM8ttiptttauttgaaaq866wpuwqquqqptqwtat8wptt8pt0tuu09u0qquatutpptpm0ttiat0upQQQuu0tpptpuutuwxc50tpwiauqquptttttqtut",
"qtuaqqugqttpuquH8tqgattuaaquaddaqqqqwpwwqqwqqpuqqwa90tpBt8uuqtttq9t9qwtcqptiutpM0ttaatttpQQQutqwuutpuuti0xc89uwwtauqtuattutuqtut",
"wtuutwugqqwpttum3ttait0uaatuaxpaqqqquppqqqwwtpqtqwa8qtuot8ut0tutq9tqqwtxtuuuutub9ttxat0uzQUQuuttiptttutu0paa5wtwtautqupttuuttttu",
"wwtatqua0wtuuqpM3utaatqtaawtaaadtqqquuutqqqqqhtqqwq6qupow8puqpwuq8uqtwuntttauquM8tqaatwwZQ~QBu0wuututuququph3qtqtaawwuuttuutttuu",
"wtpawtua0ttiutdG3ttcgqquaaqtgapcptqquuuuqqtqqppqwqwqqwpOqqwpqpppq8tqtwtgtutuaqam8ttcpuwu@KUQUittuuquuitiqpugi8tqtauwqupttautttut",
"wwuawwta0ttuutpM1ttcatqtaatuappxuq9uautgqwtqqguuqquqqppOqqpwqwwuq8uqwwucwutputpM8ttaptwtoQQIINqtpptiuutiquttv8qtwauwwuuttppttwut",
"wwuatwtx90tptqum7tthgtqtaaqtdaudpqqtautatptqqgpp4qwqqupOqqpwquuu09u9qwtcqtwpuwpM0ttaptwuooQQJUwwpptaputgqattht8quguuwtuttpptwwuu",
"twtawwua8wtutqic5qtcptqtiitugaucuqqupuuhwguqupawqwpqqw>Oqqpwquppq8p8qwtaqqttuqan0utxatwtooUQUJttpptippugqgwthm89wxpuwppwwpuuwtpu",
"wtpawwtp7wtptttc3qwdatqtptt0aapcuq8uuuupwguwupg6quwqqpOOq8pwqwpwq9u8qwaaqqtpuwuc0wtapwwuoo+UQrJtigtippuawgtqphq9wapwwtutwautttuu",
"ttuptwug5ttptquc5qtcatquiuttxapciq9tuuutwauquatqupuqqpooqqauqwppw9uq0qaaqqtptwuxqqwauwwOoo+UQIrupptpupuuqgtwugh8wxpwwuutupawwtuu",
"tttatwta3wtuttua50taattqputuapiduq9uuittwauqaaqqupuqwwXXqqawqwpwq9u0qwauq0uuttucqttau$Oooo++QQQQpitupuupqgwwuuaqwxuptupwwpptwtut",
"tttawwtb3wtutttc5wwcptqppit0adpcuqqquutuqpttgqtqugutwpoo$quwqwpuq0u0qwxwq6wpwwaxwtwauooooXoOQQQQQptuuuttqatqtuutqgptqtpwtuuwwwpu",
"wwpatwtn5ttuttuc5qwaatqupoqtaapcpqqqupuuqgutpqtttguuwuooOquuqwpuw0uqqwxwqquwuwugwwtaaOooo.XO+QQQQQttuutttatttuuutgpuwupttaawwwpu",
"wwppwwtc5qtptqpc6wtautquptttappctqqwputuqgttqttquguutuooOqptqwuuqquqwwgwqqwpwwugtttaa*oOoo.oOQQQ~ftututttgtqtuutpgutqtptwuutwwtu",
"tttctwtc8wtuutin5qtaptttppqthpiduqqwupuuqhpqutuqtgutwtooOqpuquppqquqwwawqqupuwwgwtwapWoooooXXoWWuptuuutiqittutuqtggqqpuwwpauwtpt",
"wtucwwta9wtptwun50taitqtpittdapauqqqpptgthpqtupttauwwuoo$wptquutqquqqwgwqquwwwugwwwaaWOOoooooOQtiitiuutuqputuuttugptqpptwpppttpu",
"tupctqwg8ttttwun3wtaitttap0taapctqqqpttgwgqquutquauwtu!O-wptqwupq0uwwwawq6wpwwtgwwwpaQWOoooooowtiituuuttqguquutqugptqupttpuuqtup",
"tupxttug9wtutwtm5wtxpt0uaattapuxtq8upptgugqquitqtuutwuQ,4qpuqqupqqwwwwauwqwuuwpgqwwapNW=ooooOtwwuutuupttqpuqtputugutquptwgpwwwwu",
"tuugtwux0ttptttc5twaatttupttaiiauqqtppwgugttuitttputwuYRqtptqqttqqwwwwupqqwuwwucwwwauwYWooooptqwuttttuttqptttuuqugptqtptqappwwww",
"tuuxuttc0ttppwpn6wwhawwuutqucupauq0uputp0ptwtutwtuuqtupQtuuuqtttqqawwwppq0tutttcqttautqQoooOatqwuutuuuttquuquapwphuuwtpttapuiwuw",
"ttuxtttcqtwiiwun6twcatquptqtcapcu09tuptiwatwuppwtputttuQquptttpu0wwwwwuaw0tuttpnqttaittQWOO&ct0wuuqututtquwqupuwpguawupttauiiuuu",
"wiuattucqtttuqin6wwgatwuatqugguat08tppuitapwwiuttputquuQwuuuquuuqquwwwpuw9tpttucqutautqQQooqgu0qtuttuuuuqpuwtuuwpauawtitwaipwuuu",
"tipau0uc0ttiuquc8wwauqwtpuqwacdnt09tppwttatqtptwqauqquuQwtutqpuuqwtwqqpuw0tptwucqttauttYQQotpaqtwututptpqawquutwpcaawttttpit0upw",
"tupxtttn0wtpwwpb6qwgawwuauquagdba09taiqpqatwtptwtputquu~qqptqquuq0twwwuww0wutwugqttapqqjQQotautttuwiuutuqauttutwpcpcttuttpptwwpu",
"ttpatttc0wwuiqux6wqpawwaapqthaava09tptwptatwtptwtuutqutQqquu9wpu0qwwwwuuw0wutwuaqqtapqtuQQQtauttautpupuiqawwpuutpdpctputwpuu0wup",
"uuudt0ud0wwptqtc8qwauwuwuuqtgaavhq0uwutptuuwwuuttputtuuQqqau9quuqqpwwwaww0wawwtgqqtaptquQQQtpittaptiuptiqgtqputwuhpduuutwiuu0wuu",
"tuuattip0wtpuqux8qwauwwwputtagavhwqwtpttwuwwtpuwtiutquaQqqpt9tupq9uqwwuwwqwutquattqaptqtQQQtut0taatauuthqhtquuuquauatuuqwuuuwwuw",
"tuuhtwtc0wtutwtx90wptwqwuuqtapavxwqqwuuwwuuwtuuwtapuquaEqqpuqtup00wwwwpwq9tutqugquwguwqtQQWtauttaawaipta0xutuuuwtxpapppwwautttpu",
"uuuctwtc00tpttwxw0wpwwwuttqua8ixgwqupuupwuwwuutwtapptppYqqpwqwptwquqwwpaqqwptttgqtwauttuQQQtauqtagtauutxtauqppuwtcpattpttaittwip",
"tupawtux0wwptqtxw0tpuwwuutqtaO&xgw6qppwpwwuqwuuwtaputpttqqutqwuuw0uwwwuaqqwuttwaqtqaatquQQQwauqtpgwpuuua0ctqtutwpcpatitptpiuuwuu",
"uupatwtc0wuputtxw0wauwtuutwtuQoppqqquuppwwuquuuwtputqtttqwptqqptqqtqwqugwqwutttawtwuawwtQQWtpttqpaqupptdwatquupqtxpttttuqpuwwwuw",
"titawtuawttpttii99wxtttuptqqtQOpgq6qwpwwwwwwwuwwtauttuuwqwpuqwpt9quqwwagwqwuuwugwtwuuwwuQ!~tpu0tpxtuuutawautuuutuxuatiupuawtutpu",
"tiiattunqttputa090watt0qqq86wUQagp66wpwpqwuqwupwtauqtupwwwuuqtuu09tqqqugqquutwugwwtupwwtWQ!uauqtagwuputawatwuauqtaiiuutiauwwuwuu",
"titcttunwwtputit59qtq9755quacQUxppu8qwwwqwwwquawtuuuwuuuqwuuqtptq9uqqqugwquuutawqwwaawwuJQQtauqtapwauutaqatwuuuttxtauuutppwwwttt",
"upuatwwxwtwuuwt0<89088ugcauua!!apwwwwwuqwwuwwpwwqtuqtupwwwuutttu08pqqwupwqwuuuauqwwuuqquJQQtpuqtuuwapuqaqauwuuwqtaiptuptpnwwwtut",
"tiuatttcttttt0u0=5tccaiaaawta~!auwqqwpwwqqtqtgwqwuuwwpuwtuuuqutuqquwqquuq0tpttau90wuuwtteWWtaiwqpptppttxwatwuawqtxiptuutuc0wwtut",
"tatxt0tc0t0009pd8ppcpituppwtaUUawqqqwapwqqwwwupwquawwuputiuuttuuqqupttuaq0tutugaq9tupwwtXPWuauttpptupptaugwwwugqwaiatuu$qca0wwpt",
"titat0tc999pcdca3quaitttupttaKQduwqqwppuqqtqtppwwpuwquuutiiEqtut0quptquaq9tutucu9qwuptwtoLQtautqapwtpptdwguqpuawwpuptpuOoUQY0qut",
"tittw88aixaaxpcp30tpitqtuiwtgQQZwwqquuuwqutqwpptwuuwqtuwtapWtuiuqquuttugq0tutucu99wwutwtOOQtatttpawtpttawguwwapwwxuitttOooQQ9qtt",
"qw9tticGiauaauxi5qwcpwtiptwtxQUiqqqqwpwwqupqtauttuutwuwutptuwuptqqpittuaqqtuttcu90wtttqu+OQuuuqtaattuptaugwuwuuwtxpatut+OoQQ80tw",
"0iaMauaMiitipiai5qtcptqtuuwtxQQpwq68wppwqtuqqutqquutwuuwtupttwppqwtuqtahqqtuttcu60wptqtuo+OtauqtaatuppuawgwquuuwtppptutoOooQw0wq",
"axpcitxctttuaiau8twaptwtpiqua!Qawqq6wwauquuqqauqqtuuquuutpptttutttuuqtpaqqtuttct90wtuwwtooOtuuqtpa0pptuawguqwauwtapdtuuXXOOQawax",
"tuaaitputtuupuxu9uwxatwwppwwaPQpq8qquupwqtutquutquuutuuwtpputwupquuuq0puqqtutuvt80wuiwwtXXotuuqtpatppuuwuauwuuuwtappuuto+%&:puap",
"qqiapwptqttuuuab9wwaptwtapqtazQi66q6tuh0qpuwtuittpupttuqwuptuwuttupxawt8258w9tcu90wtpwwtXoouiuqtpattiittwawwwapwwaugupuwtapwqwgu",
"00titwaptttuutab0qtaawquppqtaaQi4696tuatqptwtuuqtaiatututpptuwpttpucitccdccgq628:<80w00;Ooowptqtpatiuituwauwpwwwuguguwwutaauqwaa",
"09ptwwauwtwtttuc00tuptquptqtaaNt2895tuaqwatwtuuquhuattutquatwtuuuptciwapqttaacvHapww825OOoOwuwqqppttwitiquwqwwwwwgwpwpwwtagqqwau",
"08p0wwapwwtuttuc00qwptqtatttpapt5605tpptqatquuutuaiututttupuwwuutiuaiqaaqqttwtucwtpxbnaoOOowwwqwuu0tuttuquwquppwwguauwuwtaaw9wuw",
"00t0wwaawwppttuaq0wwpuwuuwtttpau6801tuptwgtquptquguituutttuuqwuuwutattic0tuuttpa00wppiwXXOoaxpttai0ttwttqwwwwuwqwauawuuwwaww9wup",
"00u0wwpnqwiautuc09wqwwwtatttpapt5503utudwgtwupuqtauptuutttutqquuqtuauqtvtutattpaq0wwpwwoOOoupituaxtaapwi8wwqwuwqtauauwwwwgwwqwwu",
"09twwtinwttpptpa99wwuwwuauqwppat5585uithtxuwuptttapptup4ttuwqqwwtwupuqunwttuttaa000uptyooooupiqtpawaaapxwxawuuqqqpwawuuwuauq8wpw",
"w9pwwwtnwttppwuaq9wquwtuuuttppau8509tptawxtqwpuqtuuuqtaQtuwwqqqqqtiptqunwutiptpaw0tuutQQooOwitqtpatappiaqauwugauuaauqquwapwtqwuu",
"09ttqtunqiuuutucq0ttttttpiqtppit880qauthqgtqtptqtpttwuuQuuwqqqttwttptwucwutuuqthqqtuutW!oootatqqaaqapatg0auttpuwuaagupatittt0tuu",
"q0uttwtctutuutpv9qtuitttpiqtcppt990tputhqguqwppqtpppwtuQuxwqqwquwtwatwtntutuutph9tqpusW!Wootgiqtuaqiupta0auwtpattpaatpaiuiwttwup",
"00uttqunwutuptpv9tqput0uahttacai9q0tiatawguqtuwttaupwwuQtnau9w0ttwwauwucwttpitunqttppQQRQooqauqtaaqiuuti0puqupwwtuuptupuixt0qupt",
"00tttqtntuuipqam0tthitttaa0uucaaqq0uputgwpuwwutqwauuwuaQuxcuqqwwqwtatquctutputpc8qtgi!QQWQo#itqtuaqitutg8puttawwtpupwpptuaai9tuu",
"q0pwtttcqutupwiM0ttcattuacttudpaqqqtpptgtgtwuptttpppwtpQtpcp0tttqtwgPquctutauqic9tqhiW!QQQooiuqtpptiuitg8uuutptttuuattuuutau8tut",
"q0uwqtudqttuuquM0tqhatttaattpadhpq9tputgwguwtptqtpppwtpQutcwuqutq0waRwtcwttpptpb8qqpuQWQQQWoiuqtpaqiuuta9atttupwtuuuqtuutqau9wuu",
"qqutqwpa0ttuatimqtqcpttuaaqtpxpdp+>upptaqgtquputtttiqipQtwxwt0ttqqwpWtucwtupptiv7qtpu!QQQQQ@puttpitpuutp8ptwtputtiupquuutqpu9tpu",
"wwuttquxwttpitpM9tthpttuaaqtaaadaootpttgqguwtpuqwptiwuuQpwcuutputqtpQsugqutppqpv7qtpA!QQQWQ~autqapqpuuui9puqtpttquuiqtutt9uuqttt",
"ttuuQqagtttuaquMqtqcaqttpaqtxaacaOoiuutiwgwwuupqwputwua!tqaittpiwqwqQQtawttppwuv8qqpRWQQQQRQittqupqpupti9putuuuqtpupquuqw0uuutut",
"qwptOWuhtttapqavqwtgptquaiwwxaaxpoouputaqguquuuqwpuuwuuQuwxittpiwwwooQunwttupwpn9qtpoQQQQQR!ptqqpptpupth0auqtauqtpuiqtiutquuttiu",
"tquwoTuaqutuatuM8uqhptquuattaxpcpoouputuqpuwuptqwputwtuWutauttutpuw+oQuntutuitumqqtaoQ!WQI!Qipqtpuquuutdqgttuuuqtiuituiutquuttiu",
"tqpwoOQcqutuptaM3tqgutquuuttaaavpOoqpitiqptwtppwtpptqupWitppituuwuwOooQxwttuAtun9ttaooWQPQ!Qjuqtppquupta9gtqtuuttuuutupqttutttuu",
"wwwqoorntutuiqaG5ttcptqtputiaaivtOXuuuwpquwttutqtuipttuWituautuuuuwOooQxwtwpQwtnqtqaooQIPPKKktqtpgtiuutaqattuuuttauatuatuwpwtttt",
"wwuqooontptuatiM3qtauttuuuqthaictOoutptuqawwtuuttauuttuQittputauwuwXoooxwttpWwua0qtaoooRKRQQptttppupuutaqauwuuuqtauitpaquwatttuu",
"wwtuXoontituuqum3ttgutqtiitthadvtOoqtttuqatqtptttauatuuQptpptuauuwpOoooxwttpuwtcqttaoooQQQQQiuttpptppptdqatwtuuttaiataa0uuputtut",
"wwpuooOcqutuptuv3ttaiqqtiuquaaimu:otuuttqatqtuuqtaiptuiopptttuuuwupOoooxwttiuwta0qtiooooQQQtutqtpgtpputatgtquptqtaiauaa8utuuwwtu",
"wwpaoX%ntutuptin2qtgutttuuqtpagmu89tupwtqpuquppqqauptuuopapttwpuwuiooooxwttuuwta0qtpOoooQQWtiuttaataputdthtqupwwwaaaiua8iputwtwt",
"wtupoountatuiqxn<ttgitquaiqtugamt69wwuuuqpuwtpgqqauatupopaatuwpptupaoooxwtwuuwpa9ttpOoOooQttptqtiatpaptatattuppqwaupipx9tpptwuuu",
"qquu>wuMtpuuiqaG<tuhatquaptuppimu69ttpttquwqupttqiuptuuotauttwutwuuaoOocqttuuwua0ttpoOooouttatqtaatpuuuatgtquuuttatutxx0qipuwtuu",
"qquuwwpbwpuppwiM4wthatqtaaquupivu80qtptuquuqtptqtuupqtuotpptwwuuwwpxoooxwttuuwua0wwpOOOOtuqtaittaawpauthqauquittwaputat00wpuwuuu",
"q0uwwwuntitppqib6tthpuqtgatpiupva9qwtptuqputtuuqtutpqtpOwuptwwutwuwxoOOcqttptwuaqqqa8OOtpuquiutqpaqaaatatgtqupuqtputupt0q9aw0itu",
"w9uwwwan$utuatab8ttapqttaaquatunpqqwtuwtqptqtputtututuuottptwtupwwuaoO+x0wtupttcqtqapoouputtpuqtagtuuptaqguqpppttputua009qap0tuu",
"q0ptwwax+tuupwpM9qtpitqtuaqiatuhpqqttuwqqptqqupqtpuuqtuowtptwtutwwpxoo;p0ttutwtaqqtaaOquputtpuqtuattuuuuwgpwuutttpputx7q9qawwtuu",
"qwtuwwauOptputpb9qquuttqaptuhuthpwqwtuwpqppqtptqtpuuquuOwtuttwitwuwxo$5x0ttuuttxqqwapOwwpuqtutttuatttuttwauwpputtatwux9009uu0wut",
"wwupwwpwXuuuiwac8qttutttiatugtqaptqtuuququtqtpuqttuuquu4quptwuatwuuxwwuc0ttui0ix9qwgawqwauwwuttqupttuittwgtqaupquppttcq999uuqwxu",
"wuuiu0xpoutptwpn6qqttttuiaqppuqppqqqtutaqpuwtppttuuuqtutwwpuwwuuwwupwwtg;wwptqtxqqwaauwuauwuputqiaqtuutuwawqppuqtptttgq988ww8wuu",
"wuuutwaiottpttax68tqttqtpaqpapquuqqqtutiquuqtauqtuutquutwuuwwtppwwupuwawOttpiwuc9wwguwqwapwwpuqtuputiuttwatwuuutuauuwa9666wwqwuw",
"wwuuwwpioittiqaa66qqtqttuaqtgaqttqqttptpquwwtuuqtuppqtptquptwwuutwuxwwu8Owwpiwtd9qqaawwuapwuputtapttuittwauqittquauqtwna85w08wwu",
"wtuutwacopwutwaa86t7qtqtpittaa9quqquuuttqutttutqwuupqtptwtpwqtpuwttxtwt4Owtauwucqwwaaqwupattptqtaaqtupupwautattttcut0ugaagw66qww",
"0wtutwunOuuutqax66tqttttpuqupaqqtqqttptu6utqtuutqtuaquuwquutqwuuwipxtqu>Otwapwtnqwwapwquaaqtputtaaqtpuuauatwauuqtapt0uauupxxw8qq",
"800puwunouuuttac66qqutquitttapqqwqqqtptu6atttptttuptquptqupuqqqpwipxttt&ottpp0ucqwwxpwwugaqtatqqautuiatatgttpputtaa0wtauwpgppaaq",
"pw0pt0tbouwyttix64wquqttutttguqqt6qqtttu8utqttuqwuutqupwwtpupwqwttuxpwtEottputucqwwcpuwuapwtpuqqauqaiptawduwpptwuawtwtpttwxawwaa",
"ippiw0unOuwuwupx85t0tttupuqicpt0u9qqtptu6utqtupqtuptqpptquuuiqutwiuciwtQOttputpnqtqgaqwtppwtpt0tupwupiuawxpqaautuattwuuwwwpuwtaa",
"tiixiwwb!uwpwtpx85q0ttwuppwpnawwt8qwtptu6tuqtutqtuupqppttuutitwuwtuxuwuQQwtuttucqqtaptttutwwdtttpaqupuuxwgtqaupttttpwuuwwwuuwwau",
"wuuxpwiFUuwittpp66ttuwquaawpxx0wt80qtutu6uuquptqqtutquptttuuuttuwtuxtwtQQwupttixqqtppwtuawqtpuwwtawuputawxwqppuwtptptupttwptwuuu",
"wtpxuwyFUiututxx90wyutqtapwtxctiu80ttpwp5utttptqtutuquuttuptutttwutatwpQUtttuticqqqtutqtuwwtui0wtptupitdwguqauaqtpupttpwwwpuqupu",
"qttxuwuCUptaiqpc9;wxptwupiqixxttp69qtutu3utwtppqtuttqtuttuu-ututqwixttuQQttuutuc8qwapwwuuwwtuuttiutiuitawgwwauuqtptatputwwpt0wpt",
"qqtxtwiSUptpawan8+wxxwwtaiquacttu6qqqitt8uwttpttwuutquutqppottuuqwuptttQQtwpttucqqqapwquuwwwuuttputtuutxqguwaaqqtpiittptwwau0wuu",
"qtuxtwtCUuwiiqiM8Ooxptwuaittcautp89qqutt9tqqtupttuut0uuuqpBottputqwatwtQQttpu0unqtwguwquutwuuttuppwuuptpqpuwawwwtpuiwtptwwup0wuu",
"qtpauqixIuuupqxM9Owxawtwpiwicattp69qqptt5twwtutqqutt0uuqqttQttuui0uawwiQQttuitpnqwwppwtwuutwuttqpuwuuutiqguwawuqtpuuttpwqwpu0wpt",
"ttixtwicQitiutiM8owxptwwuwwuxaitp6qqqttu8utwtuuqtutwqqwwqppQttuutqwxwwuYQuttutiv8tqgawutuutupuwtaatuttti0auttuwwwauuwtpwwtpuwwpu",
"tpyxtwtcQptiitub5owxiutxu08wpaawp889qtqtqtwwtuutwuwtqwpwqwpQqtuutiwpwwybUttittuM8uwcawqupuqtuuttpptututawat0uuuwwuuuwuutwaptwtuu",
"upwxtquxQiuuut0b2Owpuwwpxxi00tatp3808uqtqwtqwuuqwuwtqqpuqtuEttuutiqiw0uxQttuittv6tqgguwuapwtputtaawtuitdqatwttuwupuuwuuuwapttwuw",
"tpuputwxQttuiutn1+wxuw0upttcMat7t39qqwququwqwtpqtwqtqupttupfqtuuqtppwquxQtuuiitv6wtapwtwppqqauqqpptiutqpwawwauuwwpuawuutwppttwuu",
"tuixwquxQtwpiwac18wcuwwwptqixnbaq:3qqttt8uwqtptwwuwwquutqtuuttuuwtaiqqixQuuuutuv8wwcpwqupuqtiutqpatpuutiwwwuawuwtauawuttwuuuwtut",
"wtpxtqun0uuiuuxu20wxuwwuuyqtaaxicp6<3qqtqwpwttuqqtwwqwgtqtuuqtuitwpxw0txQttuuugc5wtagqwuauttatqtaaupppuiquwwpuuwwpupwtttwpptttuu",
"wtupwwux0uuppuap10tpuwwuuuqipaptpqpnt13q6pwutptqwtwt8tawttuuttuittaxwqtxQtuppuaa8wwcatquauqtpuqwaatpupui8pwwpuuqtuutquwtwupuwtuu",
"tttxiqwcwiwupiaw10qxuwwwpttiaa0tp9qtcHp1>qwwtpaqwuww8tpwqtutqtttquaxq0wxQttupuaw5tqgatttppqtuuqtacwpipuuqauwuuwqwpuuwttqqupttuut",
"tttawwuc0uwuatcu1qqapwwupuwpxxppuqqqqghMp328quaqquuwqwatquuwwwauttpcu0txUtwpapxu3uthgtttputuauwtagwppaqpqawwgwgwqpupquuuquuuqtat",
"ttpatquc0iuuiicp:qqxpwwuptquxatxwqqqwuwppMc53qtqquww9uptwupuwwuutqixp0tx$ywupwna3tthgqttptqtuutqpawpwwwpqgawawawwpupwtwtwtpttwuu",
"qwuxwwuc0iupptxp<0txuw0upu0iaxtxtqqqupwu9aaahq89quuwqwaqwuuwwwuuqwiauwwa9wwuptxp7tthpqquatqtuttqpawgawwg9awwawawtpuptuttwtuuqttu",
"wtiatwuc0wwuitxu3qtppwwtpuqpcyqxqqqtwpwp9utupccq6qwqqugwwwuuwwwuwwixuuwxwwwupwxu8qtagqttuuttauqtaawawawaqawwgwawtpipwuwwwtptwwuu",
"wtiawwix0wuputxu30txywwiuwwuxitxtqqwtutt9ptquaaagwqq8tawwwawwwauqtuaiwwxwtwuttai8qthpwqwaaqtutqqaawawawgqgwwgwawtptatuwtqwuuwwpu",
"wtiawwup0wwpiupi30qapw0tuuwuaiixtq9wtuttquuttputuxxq4quqwtutqtuutqiaiwuxwuwuiwpiqqqapqqquuqqut00wgwpagwcqgwwgwwwuaupttttwuutwuuu",
"wtiawwup0tuuuwxp5qtiuu0ipuwwxutxtqqwuutt9utqtputqpgpuuqqqwuqqwuuttiauwxuwwwuutpw4qqpuqqqtt98qq69qpqpgwwawxwwgawwuaipqtttwpuuqtuu",
"wwupw0ux8wwpuupw8qtxpuqwuuwwapyxtq0tuatuqutqttuqqpptwggwqqwqwwuuqtuaiwpwwwwww0wwqqqpptwugguachaanwqwwgwwwnwwwaaqtdupttt0wtutwtpt",
"wtpawwtc0qtuuwpx6wwxxyqpapwuppixaqqwuutuqutttppttppuqpaptatq0wuwwtpaiwaaixaxxpcbtaphhappgguihauugn6puuuwwgwwwpawwgwgwpwwqtutwtpu",
"wwtatwub0qwuptxc8wwpppqpxuwuxptxptqquutuqptqtptqqpttquuutpaaqqwtwwpxptauqtupuuacqqtaaptpaattauttgn6uuupwwgwwwpwwwapgwwwuqttuwtuu",
"wtppwwun0wuuuqyn8wwxxwttauwwaaixutqtupwuqptqtpuqttpuquttwuppwtuwwtiaiwppwtupuwtcqqtpawtuapqtapqtgcuwtuuwwgwwpawqwpwapwwwqwwwwwpu",
"uwuxtwwnwwpuuqwn8twwxwqtapwwipiipwqtputtqupqquutqutgttwtwtpttwauwtpppwau00iwwwyxqqqtawqpaqttattupcaquupqwpwqawwwqqwqupwwqwtuwquu",
"wtpcwwux0tpppwun8uwuawwixpqtxutautqquuouwptqtpuqtptaqptwwtutwuuwttuapwpaqqwauwuaqqqtptqtpoqtatqqahatwwppqwwwppppwqwqwuwwqwuwqwuu",
"twpxwwux0uiupwib9twixttupittputpptqquaWpuptwwpuwtpppwuaqwuuwqwwutiuptwapq8uawwpx6qqtptqtao4tputtaauawuppwwpwwppwwwwquwuqqqwuqwuu",
"wwppwwuc0utpiwpM9t0xpqqupqttuiwputquapQptauqputttguuwuattppw0wwtwuuawwtu08tawwapqqqaatqupootatttaauatutuqqwqwpawqpwwwup>wqwwqwww",
"ttiawwux0wupuwun0twupwwiptqtpptptq0tpuQWwgtqtpuqtauattpwpaut0qwtuptwwwutw8wpwwppqquppqqtpootptqtaauppttpqwpqwawwwgwqwupQuqwwquww"
};
