/* XPM */
static char *result[] = {
/* columns rows colors chars-per-pixel */
"128 128 61 1 ",
"  c #49281F",
". c #4D2922",
"X c #522D24",
"o c #563027",
"O c #583027",
"+ c #563128",
"@ c #5C342A",
"# c #5F382E",
"$ c #60372D",
"% c #623A2F",
"& c #643C31",
"* c #693E33",
"= c #6B4135",
"- c #6C463A",
"; c #6E493C",
": c #714639",
"> c #744B3E",
", c #784C3E",
"< c #764D41",
"1 c #7A4E41",
"2 c #755142",
"3 c #7E5244",
"4 c #835446",
"5 c #885647",
"6 c #865748",
"7 c #885748",
"8 c #855949",
"9 c #8C5B4C",
"0 c #925E4E",
"q c #985F4F",
"w c #945F50",
"e c #8E604F",
"r c #93604F",
"t c #98604F",
"y c #8F6250",
"u c #956351",
"i c #996654",
"p c #966855",
"a c #9B6956",
"s c #976E58",
"d c #9E6C58",
"f c #9D725C",
"g c #A16655",
"h c #A26957",
"j c #A26D59",
"k c #AA6D5A",
"l c #A4715C",
"z c #AA725E",
"x c #B0755F",
"c c #A47760",
"v c #AE7660",
"b c #A67961",
"n c #AA7C64",
"m c #B17661",
"M c #B37963",
"N c #BA7E68",
"B c #AF8067",
"V c #B08167",
"C c #B28268",
"Z c #BE816A",
"A c #C08269",
/* pixels */
"9udjuizi35udauudau9iauuidu0uaauyaau0da0000qg4aai0iau4aaiwudiiuiiuuaar9il0083t70nui&jduX04rriaiuuaau0jpu0aau9udarrauu0aaiwida9iuu",
"uuaau0a5z93su9udauuaiu0iduriauuuau0uaa40i5458aai0aau0uau0uadi9piy0aiu009ktr35,00pu=dduX05r0iaariaa0ujai0udaruaa0uaiu0aaa0uaa9uua",
"u0adwui4ahk999udauwiau0aduuudi0uaauwa09 8at45iai0aauuiiurpaia9iuuwiai009i=4;059buu=dae904u0uaa0uaawwaju3iauiuaauuaiu0iauruap5uad",
"wwiairaa9wdva39diuraar0adu09ap0wip09pa3&ep1<3hai9aa90aau0ijiq9ap0yiar054uXuy309buu=aae00duruai0iaiu0aau4iaiuuauiuad90pdprip9wudp",
"r0adr0aa40pjjg8upruidu0uju9ida0uaau9id9griq9radi0aauriduupjj9eauurauur0ljXic8:0j09iru9q0ai0uau0iaar0iar0uaaruaiuuuirruaue9ij0uai",
"ruaiu0aj10udaujj999aauuuau0uair9apwuiiw00i01rihrruaruuau9udj99apuwaau0ici@pB9>7900*da49jauruaa0iaarraau0iauriaaiuaaruaae9ijj9uad",
"uuaau9ia909aiwizl05pau9pdp0paiw9aa9uaauq9qi0iaiira3ruape9eya39puuuadrr0biOin0,4w091ae39japuuaa0iaaruaiu0aau0rapuuaiu0uyuwija0uaa",
"00aauujuu0idp0udaai9ue9uduruapu9iaurudw90gi0uddreaau9ue848ud83yu00iauuudi@inu,4i0049549iauriaa0iauuridu9uai0uduuraar9uduwpipwuaa",
"uuaau0jai0iauruaiuikd80uip0udirraa9upii0uauuudi09uu958ywhjzak98e0raauwda000n900097w0q0i0airiau0idauraad5idi0uaawuaa90adr0uai0uaa",
"00aau0aji0ida9uda9uala5wu0wuaau9aauwippwaairuau989yuhjzjiajaizu39uiauui5i0wi00q090q0juiuairuai0iaduriaiupap0uaa9rauiuaau0uauwuia",
"9ua40uaauupap0udawuajagj9e9paa09aauuaaw9uau99yuuavlaajaurijirjM939pau0iiq40744wg509aau0adrruda0iajrriduridi0udi09aduuiai0pai0iad",
"0waa4uiai0uuiuuaaww<iiijv838up0raau9ipu9epuujljiijjuuiau0iduuull93u490qgg99140qiqi9iau0iauruai0iaau9aauwudi9uau9uaa0uiauwudu0uad",
"0uaa<9idu0udirupiu45auuakki3eyeepu99eurualaiiad90iau9par0idp0ujik9e:0900558409994u0uduriau0iairraauuppuwidu0iuiiuiauuiduriau0iia",
"9uaau<ia40iai9rua957a9ridiazu389e89uddi0iau0iaa9raau0idu0udu0usupji4<i0ayX8a9qq54ruaauriap0paaruaaruiau0udp09dauudpwraauruai0uaj",
"9uiauw50<0uaa09eiwi1aiwiapuhMm4izjiuaau0ipu0aui99aa0wudi0iaarud9uija<15cu+e90w0590uaduriia0uaa0waduriduuidp0adp9uaiwuudu0ida0uad",
"9uaau09<049auaieaq059u0pdiuijl5ujjuriai9jau9auy9eaau0pauruaurujuwudlp@9cu&9u74903rriduriau0uai0uadrraau0uup0udu9uaauraduruau0upj",
"9riar008004aaghri0i0au0aau0ijz4riauwaau0iau9aji99aiuriauuuaauuduwwajhg5lrorl6u9ear0pduriau0iai0iaau0pi00pdi0ili9uaauraauriauruaa",
"9raauuii>75hiuiia059a9raar0ili9uauu0apu0udiujjh99aau0pduruauruauu0paiih30Orf4h9uarraairuaa0uda0uaiu0iaruiauruda9waprriauruapruaj",
"9raauuua4:4,4r09,97iau9adpralu9iapuwiauuuhpraja99aauuidu9adiruaeruiairjh0X9q90tiurraairaaa0uadwuajuwpju0pau0uda0raauradu0uduruaa",
"9eaau0ia0=01<i9q4<7wuu0aau0ulr9uapw9adu0aaa9ida0eaauraduruaarude0uaarral004409iiarraauuuap0udiuuiau0jjuuiai9iaiuuaprrpau0idu9ujd",
"99aa00ad7qq0450i059idu0uairgju9uapuwaduwidieudatupau0iaurijuuuaurraarrud0g0499u5iu0pau9pdi0udi0waauuaai0idp0uai0raarraduriaiuujd",
"9raaiuiaa48u50<0q93idwwuauuauu9adiwuiau0aaiuuiaiuuuuuaau9pau0uauruaiurid0ii9uwud<0uaau0iduruai0idau0adu0piu0papwuaaruuaueuaa0ujd",
"99piu0api0rf493y415aau0uaurhuiuuaiu0aau9uaaruaauraauraauuudaeuauuraau0uapwajurwaa00iiu0pda0udawida0waau9pai0uairuaauwipurpdurujj",
"89pau0juua9be:9f94&3aui>diuipp0uap0uiaa5iau0udpwuaa0ruprwpauruau9rapuuuauruaa0uaiuuaau9uauuuai0iaiu0idi9iduwuipu0aauuid90iau0ujz",
"4epiu0jdurhlr:9bre&8i0g1aa79aawuapwrpai0udiwuaiwuaaurajr0iipwuapu0iauwjau0udauraauwpauauauuudp0uaiuwiai9uai0uap0raiu0ijeruiiwudl",
"30aauuidiu00959nuu=e05701979pu0udiwriaiuiiuwuppuuuau0aauwuai9uauuuiau0iau9pai0uairuadu0iai0uap0waaw0aauwiauuuauuudauwpdiriapwujz",
"49aau0uaurutrt0vpr*u405445>0purraaweaauwidpuiauuuaauuiau0papwuaueuaau0iau0upiriaa9waauruai9upi9uaauupau0ujiruairuiau9pdi0iap0udz",
"69pauriauruhg00vpu=u900,0099apu9ipu9iduwpdi9iiuuuia90pdu0iaiuuapwuaaiwpauuiii0udau0iae0iai9uauu9aaweiau0iau0upuu0aa9uiau3udu0pjl",
"49aau0iaurud099dir=du8i9730uauu9aauwiduuiduiuipwuiiy0iau0pairuauuuaauuaau0apuuuaauriaruuau0iaur9aiuuaauuaauuuapwuaau0aau4iai0ujz",
"40darupauuirqt0iii&lu9.0iuiuiuu9ipwuiiuuupiiupuuwapuwpdi0uau0uaauwiau0iap0uip0uaariaauuiauiuia09dauwiau9adpuuau0uuau0i539paa0ulz",
"49ddu0iau9ia5t0hrr=dau 094h9y939aau9adu9iaiiudu0uauuwiaurudirupa0ridurpaiwupi0uaarrapuuudairaureiawrpau0udirudarraau9i944udi0ujk",
"8yaiuuadr0udi0rtrr=dai.0>193ap38aauwadu0ihiiuau0wauuuidiuuapruauwuiauwiau0uii0uiarrduuwiduirau89diuwpauwiaiuuai0ra9409470ida9ujj",
"99pauuadurudarht00qjiuX8330uda39aduwaar0uaiuuaurwap0uaauuiauruda00apu0aau0upp0uaaurjau0aiiiiai89aauuaau0uaawudiru4i005g59idarulj",
"99iduriairudprutttiqa09rf80rad8e<iurupu0uairuairupaw0pdu9aairuap0uiauruauruairuaarijd99idiwidp50adwriau0pauuiai97>,7g4h9ruaa0rjl",
"9uaarriai9udi0uh0q9qi4Xiveo93j004400aau0aapurapruade0iai0idpruapruaau0aairudi0uda0ual99adauala00pau0aai0udiuia9iq40409du9uda0udl",
"99ipuridiruau0rag0q9grXana+9a0iu04493a,0idu9uaiuwaa90iauriauruauuuaar0aauupauruaawuad99idiuija0uaau0iau0iau0uiug9qq99pairudu0ijl",
"99aduupduriduruda0h3auXana@il4ur04<00043uai0uaprupiwuuau0ufu0uapruia0wpau0uauuraiuuaj09uaa0ujau9aa0uaau9paiwua0q0q7q7iapruaa0ujl",
"99aau0uaurudauuaar99diXina@ub30a074X143,5auruduruaau0aauruairuau0uiauuiaurpau0uairr4jw9uai0ida0iauuuuduuiauw9aqqiq07qiaueuaar0az",
"euiau0iaurudi0u1arifduouna@ub3uj090O9ye99aa0uaiuuaa9uipurudu0uauruaauwiap0idu0uap04ija8uju0idiwgaauwiau9pii0iiqq7994uiir0iau0ujz",
"9waau0juuruai0i14t*dduX0ni@u24ui99q@uu34<auruapruadr0aauriaurrauuraau0uau0uap0udi0uidd4eai0iai0aaa7944p4udi49a00q97q0ia9ruai0ujj",
"9radr0aauuiap0uu99*aaiXivi@9040g000Ou9479auuuauuuaau0uju0pdu0upprupau0iauuuaa0uai4uaaa99ap0iai0iaa3X3949iai04a000a9uuaj93iairujz",
"99ahuiijuuudpwua0049iuXinp@,qi0q9qq90q09uauripuuriduraau9uau9uauuuaiu0iau0iau0uapuraaiiuau0udi0ada53897<iai07au0w74<4444<eaprejz",
"99aar0pai0uai0ua0qii0g:r9uO7i04i49i00007aii0uap0upauupiu0iiiwpau0uiarriauuuaa0uai00paiiuai9udauiiau@uy4>4a004ai0w75eX945rrdirujz",
"99aai0aau0uji0uaq0q0gqtie040i9q9414@34i0pai9uairuaa90pau0idu0uaa0iaiuraauwuaurui4u0uauiupi0uau0ia7eXpp41>400udiu09p8o8440ia99udz",
"99aauwiai0iii9upirgaig0ihk9igt04u99X945wpdi0uauwuaarriai0udu0uau0uauruaai0uap0ua4rriiuuuap0uaa0iaa950ae.9e4444wuiluiX09i0iaiuujz",
"89aawuidiwpdiuuuau9a9r05ii0iahg0qwu400uwuai9ipu9uairraduuuaa0rap00aar9iau0iai9up40uaauuipu0iau0i990-adu.ule@9u334luu9iai0eai0wjz",
"9epa0uaai0uapw09a0riat0t4r0q75000gwi0au0pii0ipueraaruaauruaa0idurupau0aai0uda0wupr0aauuaauwuaaq0999@afpXuny@93844bu9taauriai0adl",
"99aauwpiu0paaau9iruajrriau49gigu09q5iai0adp0iye9uaa9riauruaiuudauraa0uiaiwpad0uaaruiauwaiu0iai0qlwu@aluXunu#3f854l390aduuiai0ajj",
"89aau0iauriaaaa9iuuaauruar99qi0uag90ipu0idp0iau9wiiuwaau0paiwuaarupiu0uau0udduiiarriauqaiiuug979dii@adqXini@uC00g0rr0aau0iaiwijj",
"99idu9aau9udawiuar9aau0phiq0au0uaiu0aau9iairida0uad09pdu0uiiwuppruiau0iai9uaawupi0uaae0aa9ui097ivuu@djiXibwiuva099auuiap0uaauujl",
"80aiuraju0uaauiai00aiu4iaqi1aiuudiuupai0aau0ida9upau0iai0uauruiu00aau0iau0uda0iuauuiauuadu9uq0qqu99*aliXuu0@99a0raarradi0udi0ajz",
"80ayuuidu0ayaqujauruai144919da0uiduwiau0uaa9iaauwapw9pau0pauuiau0uap<uaauripiwuaawrpau0al9979iig0i05kiq00i039aaiuaa9uuau0uay0ijv",
"89aauiiau0udarujauuaaut99q4uau0upa0waauupai0uaa0uaiiwppuwupuwaay0uja<uaauwuai0uuduwiirrhj449ap00iigg50qq0400uiauuadr0aauriaa0gjz",
"99pdu9idi9idu0rda0waau0gq00idiruaaw0iau9iaiuuai0riai9ia99uap9uap00ia57iauwid30uap90da0ua055udu0i50qq090094i0iaiuuuauuuauruauuajz",
"90iauuiuiruaauuaiuuiau005p0pda0uaauwpau9udu0iaa0491a9i9u0uauwipu0uaai51au0wi9>4pauwiau0aii9udi0g5gq0g90001i0uaauuiau0iay0uai0alz",
"90apwwpyuriai0idiuuiau0uauuuairuda0uiiy9iairuaar4p9iupp9wudpwuau9uda05:uu9554i5pau9pau0ijj49apwuai75iagq0aa0uaar0aauuia90aai0ijj",
"89aau0a0uriairraauraauuiau9paauuadu0aad9iapruaar7,ai5ud9euduwuiy0uaa948>3u0g4941a00pauril930au0rair0iai95dp0udiruiawuaj9ruauuilj",
"8uaiu0aai9uaa9uda9uad00j5u0uairrdauraii9uau0uair045i5upueupueuuu0radrref50u99=47a0uia0uhuj59ai0iiarridr0udi0iaaruaauwpauruai0ajj",
"9uda0wpdi0upi0iai0wiau0dauruap9raa00aai0idu0uaa04g4iiip0<uau9uyuruidg9rl8-05u:4:,wwaaw9a0ju8piuraauruautuauuuapu0aauwaairidp0izh",
"8rdiu0pdu0upi0uaarupdu0idurriaeuaauuiau0uauuiait5504ik145upe9eey9riit0inu.09r>8y<4wpduuajja3puuuiarraairiai9uai0uad9uuai0uau0pja",
"9uaiuuiauraauruaa0upai0aauruaurraauraiu0uai00ii09q995q499yuu8y8y9raau:unuoey99ip8<waai0aajh3uyuraprraiu0paiuudiruaduwiauuudu9ijd",
"99aauwaau0ijarudau0iawuidurudirrairraeuupauiuaii9q44q0999wue848y9uaarrpvuo959h0a83<aaw0aaaj4yyuuaar0jpuruii0uaar0iauuiapwpaiwida",
"00paurpdurudaruapu9aauwidieudiruia0rjyr0iapiia091u51qgv959ye8<8e9uaau5uvuorfgh0l931pai0idaguyu0raarrjueriauuudi9uduuudiu0uau0idi",
"uuiau9uai0uda0uiiu9iauuidirudprrda0rluu9aaiuua7i545u70Ni9uapw;8y90air8uu9-ulg0ifw7<iiiwaaajj89rraaurjeu0ppuuuaprruau9iauuija0iaa",
"u0ia0upauuiji0uaa0ruarraai0udu9uaawuluu0piiuua40q0qq7kNiwudue-8y9riau0rfe=9b9igr97,aiu0aaihm3eeupaewkauuiauruaiwuaauriaurudarida",
"ruaauruauruji0ujiuuaau0aau0uai0raa00jauwuaiuuf8009qq0zAiwpipe-eyuuaa00uvuoen5r0g0q10auuaaiiz8e9uaauwddywaaaruaawraau0pau0aaa0aaa",
"wuaai0adp0iji0udauradi0hdi9pdaruaaruadurid8+9li5ig09ijNa0pdu9-9u0wpaugubuoun94it9491au0hiuikd89uaauudju0adi0iauwuaauudduraduriau",
"0riau0udu0pji0ujauruairjduruairraau0aduu9fu#yfuu0ii9ikNjgjldp28e90ipuw9nu@un8qtt00519ruaaiiaM35waau9iay0uai0udiuuap0raau0uduruai",
"ruaauwpdu0iap0ujiruaaurjairuairuaau0ia9Xpni%r9urt9i0ikldijkdii9uruaaui9biOin9-iig00,4i0aaiujm37upuruidu0uiaiiaarwiaa0iauupau0iap",
"wuiauuuauwpai0ujar0aauujauuudiria<r03auXunu$9earii7qikjdihjiiiru9udiw0wl9-iVu:tq40049u0adiwiz849uu90pau0pap0uaa0uaar0iau0uaa0rau",
"0uap90uau0udiwwaa00aau0aau0uairia08opfu.uvu>iaiuriiiizjpuidauiep0ua9ur9u9:iBt,497qi4>44aip9uajaue889up09uii0ujiuuaau0aau0idi9rdp",
"0upuwwupu0udpwuja0uidu9uau0iaa0gii0=pau.399wuaarriiiijzwuajiruea9uapu009400iu>4090&py513aw9idpakvza999u3u:<>uapu0a4u0idr0pduurai",
"90idu0apu0iaiuudiuwajwiupu0uai0iaiw4ia09quuwuaauuaiiiamiraaariau0ui7wwh5it9v914007&uu3uuaruuhu0aadaazzj<13,41aiuuaiuuil90udaruai",
"9uaau0aai0uji0uaa0upauuipr9uau0ipauhi0g7paa0udu0raaiiajauiji0udi9wa4uwa00q90495q99*0r9raaiuudi0isaiuhjh0av434iu0uaau0ujirudu9upu",
"uwaauruai0paawujpu0aauiiarruddur99989iu0iaiuidi0raauiajiwiha0iii9uaa40aqiqg0qq0qur>44r9ifiruja0iai00ia97uv9i9ap993ar0aai0iau99dj",
"0udpuriau0upiuudiw0uiwiadeeraaijvl9;8999pau9udauuaar0ajiuiduiuia9u754wigqgq4g0q0r91u7ruidiruauridar0990%e0949jjuiap99iau9uauuijd",
"0wapu0iauwupiuuaau0aauiidu9iai0ijjhzvu;<8yu9uapr0paiiahiridjwiaj9uw9q90q90ii0000r43uairaauriduriaau9<90&944q5iarudjiuiauriduruaj",
"9uair0aduuuda90pa0uaauiadirudu0uaiiijvxzu2<39uueuaii0adiuiaawujl79i079q94%hqqqq094<hau0uaueuduriaiiqq0i-9i054ii97aau0jjauadariaj",
"rupauuiai0uai9ryiuuiii0adu0uai0iiarruaiizNMu22349ipiuaaa0idauidz9uag40900494g45p9<4aduridi0uju0ipau0q80:9940uau90daurdai0udi0raj",
"9uapuruau9iaa999auria00iauraduwuaauudau0idhhzNa3<8u90ijuuuai0idj9uad94459097477499raauruauriauridaw10u5,45794iu99iiiuaaurudi0ual",
"9uiarriap0iadiu9iruaiuriauruai0uaprraaurpdiwazzhkze23ey99pduyuaj9waaui5a974s880079tiauriaprujuruda9Opd9O5704iji90aauiiar0iairupa",
"0uapuuiduuudaraup0uaauraduruaiuuaa0uaau9uapwiaj0ilzzhp8448pu9yij90aau90e0X9b8300079iau0iairulrrua09@adu4<auuija9uiauraai0udi0uad",
"9uaau9adi0iairudiuradurafuruap0uipuwiju0iap0ijiuraaiakmmu83389ua8upiuuig0O995iq45q0aau0udurudurua0u,af747du0idi0uaaruadurudi0uaa",
"0raaruddu0iuauujarruauridir9ap0udiu0aaueiai9udp0uia00ajdavNj3<8e49purrua090u49uq540iau9aii0rdpriaw0Opw00uai9idiiraar0aau0idp0uaa",
"rraauriauuuairudauuaauruairiaaruiau0iau0uap0wairuiau0pduuazlhxvu,3eu99uaqi0q00ut490aauuudp0iju000599qq94pau0udaurpa0uiaiuudp0uap",
"ruaiu9pai9uai0idu0raa0ruarruai0riduwaar0aaiuudauuaiuwaay0adiijzmhjp838upi0i7q0u04r0aau0pdurudi0iiq5900q0uaiwuaduuuar0pau0iiiwipu",
"rraaurupiraau0wda0uaau0uaaruauuuaauwaaueiau0uaaruaiu9iau0uau0ijzuazzjruairiai0ua400adu0udurua479iq0q9940idauuiiiuaau0aau0udiuuiu",
"rupau9iuuridi0uaar0iaureduruda0upauwiai9uairuai0uaauuaz8widiwuaj0ijlaaueuridi0udaruaauu9au0u06,434g59709<ai0idiw0<aruipu0uapruai",
"0uaauuaup0iairuaau0aauiua40uap0uaauuiai0idu0udauuaau0aji9idi0iaj9uajii0pu0uaaruaaruaduwuap0u30g0w95999q0pai0uaa0,<au9iju0pai0wdi",
"0udau9adu043u9udiuuuauriau9iai9rai00iai0idiwuaaruaauwiaiuaaa0aaj9uaaiu9iuuudu0raar0iduuiau0u5u0i90g9q494iiuwwaii994uwpdywuap9idi",
"0uaau0aai05131uiiruaau9ada9pip0uia0raai0uai0uda0uaiuwiau0iauwudj9uaaa0yauupdiruaprraiu0idi03uu00agq94aq5iai0wapi094uwpau0uap9uda",
"00ipu0id905553uapuraaura4g99au90aau0aau0aduuuaa0radr0pdu0iai0uda9waja8uau9uai0uau0ria0uad175auuuaiqwih00iai9uauwria9waau0idu0uda",
"0upau0ia0qq494,ia0uiprria300iu10dauuaau0uauwudiuuia0upduridu9uaj9uajh3uai0uji0uaaruiau0ia054a000aaiuiduwidiiuipw0hauwiduuiau9uia",
"00aauridi990404aiu0aau0ua49549<0aawwaauuadu0uaaw0i090aau9iai0iaj9ijla8pap9pji9uair9aau0a0000a9u9di1w1aiuiipippi0uiau0pau0uaa0uad",
"9upauriat00qi949,i9aauuia594ui33aawraaurpauuudau054<07au0uaa0wad9ujl09uai0ija0riar0pauw5ggi0a98eaiu09du9idiiuduuraau0iai0iaa9uai",
"9wiauriai0iqq415<48aau0uj0&4ww534uu9ipu0aui9uii9044wuiairuapuuaiuwhz59uau0udiuuaau9aau09gagidp49daw4pduwiaiiuaprwiuuuuauwpda9uda",
"uwiauuiau00iiq4p389pauuidik981449544rarr8diri0000q0r5idiridiruaprulv4rpduuuji0iaauuiiu095aaudp59aau9adi0iiaiwdp0uaaurpau0uai9uaa",
"uuiau0idi459097l984piu0iaiqii1q7r9944ju9iii0rh0hqg7q4ijrriai0uaa0rjz89iap9uaa0uja0uaauw9aaahzi8udaw0aiuuppiuuiir0uauruauruaa9uaa",
"0upiuradu00gqq0q94>iau0adaiahq79e3544,u4udurttggg090radrruau0uairrjl89uau0iduuuaauuajuwihaiiji00aiu0adu0udpuuauuraa0radpuuda9uau",
"rrapurad00q0qqqq909uiuwidu0rjaqip88r4594iaii4i00g554riduuuduuuapurju9uaau0iup0uai0uuiu0paauuda0uapu9aaiwiau9uaauuda90aau0ida0uap",
"rriau0udu09q0g08954ajw0aaa0idaq9nue+863rpdirga05t9prraau0udiuuaaruz99uiauruau0uda0ra5uupajwudiu0aa0upduriaiwuiiw0apw0aau0idi0rau",
"uriarraai9ua70q5445aa0uihu0idd00lur+pp3eidi99h0hiiarradu0adp9uadeule0raau0udu9uda994au9iagwuaiwuaiueiiuuaiiwuppuupau0uauruda0upe",
"rridrripu0iaq0qq049iau0uaawiai00bpu@as9;udi94aht054rridr9adi0uaarul9r0piu0pai0uaa059iu0uaa0idpugaauwidu9idpuuauuriau9aauruaj9uuy",
"ruaaurauu0iai00ii4,45u.9ai0ida00niu@ifu.3u087ai09iarrilewuaiuuaauize00aupuudpuuaar7iiu0uaauudiwiapr0aaa4idi9uaa0uiauuud90adarapu",
"rraauraau0iai0qgt896e9.idi0uaiw9npu@jlu.89944di0raarruduuiai0uaarifuu0aauwuauuuaiu1iauuuauuuai0iaiuwuaa0uaauuai0uaiw0idu0uda0iau",
"9radr9iairud,9u008%apu.aaiuuad0uuiu+afu.9st44aa09aauridu0uaarudaugyuu0idi9udu9uda0uaarriauruapuhdiwuiauuiau0paauuapu0pau0uaa9ulu",
"9uaau0idi0ia01g0e0&dde4adurudi0udui@aluXuf440aau9pau4aauruap0uaaua9uu9aau0iai0uaar0pai0aduruaiuaaau9aauruauuuaduuaauupdi0iaa9uli",
"9uauuuiau0ipi5ipur=aperuau0iai0u9uw%alu.uf49uaawrui939au0iairuaaug9uuridi0ipiuuaa0ueau0pai0edi0iaau9ipr0adi9iidwraawwiai0udi9rjd",
"8uadrrapuriai00cuu=da9rudu0uapuupup@ali.ub9=3apr9pa<15ai0pap0uaiua9auuiau0iaaruaa0raiuraduriaawiap0uiauwiauiuad9uaauraau0idh9iaz",
"89adrraau0pdqk0buu=au4rpai0uaa0ui0i@djpXiny+3dp09pi334ar0iaiwiaaauyau9iaw0iai99pa0uadu0idu0uau0idiuwadu0uauuuaiewaiu0dai0ada9uiz",
"99uprriau0ida99prr=aeurpauriauwiiwu@dliXpnu@<ki099445aau0idi0iaaa9uau0iap0ija99yauuaai0adiruaawuaauuiaurpau0iia5uuau0uau0uda9ipl",
"a9aai0udp0piiku4u99e4u0aau0uai9udii9aluXunp@7z0>4ue8tiau9uap0iaaa4ud0upduwudaiu9a00aauuuaa0uai0wadwwidpriap0ujp5rpa0rpau9uda9iij",
"j3uarriaurudakh4rt05auriapuudaruah9r0utXinr@0k443fu43aaueiau0uadg3iduwiduruadhjyiruaaiwiauuidiuuaarrpau0iau0izj9uiau0aai9paj7iii",
"j8udrriauuuai0i390t0au0pai0uaa0uaat0ulr.uve99u0w3by49uauridi0iajh4pdu0iau0uadriua9raa0uidu0pauuuauu0ipu0pap0uaa0uaauraauwada9upa",
"iryauupauridhrtegt50uuuudi9uai0uaa0hi00Xuv8a8f0i3cu35i49uuap0uadu5aauwiau0upauiap0riau0adu0uduuuaaruadu0iap0idaquaauuiauuiaj5iua",
"ih9uu0aauruuirii40049u0iai0udu0uah0iigqXuc4iuvui4c90ra940iai0uaj99aauuiauruui0ijpruudu0iau0udi0iaar9aduwiii9udau0paruuau0uau8uaa",
"ik8auruaprijurua94<e440giu0uda0uaauuitgq8lt1inui4l43999,uuaiwudz39pau0iau0uau0uaarraau0adu0uda0uapuuidu9piiupaaiuaiu0aau0uaj9upi",
"0heur0aarruairud99#84444ai0iaa0uaaruiggq980@iVi04f3r09au0idu9uaz39aau0pduuuai9uja90aa00aau0pju0uaau0dauwupuwuuiu0ja0rddu0iaa9ipa",
"uadeu0apuriaarud0t&89479ap0iai0uiair7qqq990$ua9g99905iduruau0udl8upau0pui0pauruaiuuaau0iaiwuaawiaa00idu9uaiwiaiiuaau0ad9riid9upi",
"ruz8r0leuruairuditg440g>apuudaruaa00ggg9900@99qg<5q3ralruiapuulj99aiu0aui0uau9udauwaauruap0uaiuuaiu0pdi5iap0uaar0aawruz8uija9uia",
"riv8y0dau0uap0uaiqq07qirairuaiuudar0aai50eu$<iaq5u0w0iji0idu0udu9uaar0apa0uduruaprraaut4au0udiiudau0aaa9uduruaaruaiu0aji0paa9iii",
"0iz99uaji0uaa0uda599i007<uruda0uaauria0qgd9*5jig95400haiuiaauil99iaau0aai9uiu983444iar4rauruauruaiwrpiiuiip0paiu0aauriai0ija9ipi",
"wukj9waaurujirrda0aaa079au0udauuaar0i5ii0r970aag0774wpau0iau0il99uairriaa0up404fe6#4dr35aurudarraauuiiuupau9uai0uaduuudu9iaa9upi",
"urjl59p9arupiruia099ii4hau0riauwaar0aaiq9a0iwaai400,wpau0pdirij90uaprraaiuue:>9nu9&,593t63ruauuuidw9iau0idi9uap0uaa9uiaiwudi9upi",
"wujm39paurudpwuaii0ii03jau0idpuuaarraa50e907udak709uraau0udiuaayruaauuudaay99,rvuu&e4948840rairuaa00piu0pdi0uaaruiauwaapwija9upp",
"uual89iauruli9uaa90ap9radu0uau0uaauraii999g9uaaiqg5u0iauuiaprjyuuraar0<a1i99948Bir=p939343ruairiaiuuapuraai9uapr0aiuuiapwiaa9upi",
"0wiau3eauuudu0uaa09ia4radu0iaaruai0ujir5qq59iiii005wu8du0idirh9u0uaar0490X3440rnii*fae.e3uruai0uaarujuu0uau8uaa0uduuuiauwwaa9upu",
"u9ijajy899aji0upaw9iau0ijp0uai0raiurjui00q09>aai0apu9iauridariuuu0piu09lhO354uuniu&dauXe>uruaiiuapuujuu0aau9uai0uae0uaauwuda9iiu"
};
